<?xml version="1.0" ?>
<svg xmlns="http://www.w3.org/2000/svg" version="1.1" width="273" height="400">
	<g fill="none" stroke-linecap="butt">
		<path stroke="#FCBD4B" d="M 84.00 120.00 L 84.00 120.00 C 84.00 120.00 87.83 116.17 92.50 111.50 C 97.33 106.67 104.88 97.39 110.00 90.00 C 114.95 82.85 121.70 73.62 125.00 69.50 C 128.49 65.13 133.71 60.12 137.50 57.50 C 141.07 55.02 148.50 50.52 154.00 47.50 C 159.50 44.48 166.03 40.65 168.50 39.00 C 170.97 37.35 174.57 34.20 176.50 32.00 C 178.43 29.80 181.12 25.52 182.50 22.50 C 183.88 19.48 185.22 15.43 185.50 13.50 C 185.78 11.57 186.45 10.00 187.00 10.00 C 187.55 10.00 190.70 12.70 200.00 22.00" vector-effect="non-scaling-stroke"/>
		<path stroke="#FEB61B" d="M 200.00 22.00 L 200.00 22.00 C 200.00 22.00 201.57 24.25 203.50 27.00 C 205.43 29.75 208.12 34.25 209.50 37.00 C 210.88 39.75 212.68 44.25 213.50 47.00 C 214.47 50.24 215.00 56.22 215.00 64.00 C 215.00 70.60 214.55 78.03 214.00 80.50 C 213.45 82.97 212.10 87.25 211.00 90.00 C 209.90 92.75 209.22 95.22 209.50 95.50 C 209.78 95.78 212.70 94.65 216.00 93.00 C 219.30 91.35 224.03 87.97 226.50 85.50 C 228.97 83.03 231.45 81.00 232.00 81.00 C 232.55 81.00 234.12 83.47 235.50 86.50 C 236.88 89.53 238.68 94.70 239.50 98.00 C 240.32 101.30 241.45 108.05 242.00 113.00 C 242.67 119.00 242.67 125.83 242.00 133.50 C 241.45 139.82 239.88 149.28 238.50 154.50 C 237.12 159.72 234.43 167.60 232.50 172.00 C 230.57 176.40 226.07 184.50 222.50 190.00 C 217.79 197.25 213.80 201.93 208.00 207.00 C 203.60 210.85 199.10 214.45 196.00 216.00" vector-effect="non-scaling-stroke"/>
		<path stroke="#FEB61B" d="M 172.00 133.00 L 172.00 133.00 C 172.00 133.00 174.47 130.30 177.50 127.00 C 180.53 123.70 184.35 118.53 186.00 115.50 C 187.65 112.47 189.90 107.08 191.00 103.50 C 192.10 99.92 193.22 95.88 193.50 94.50 C 193.83 92.83 193.67 92.33 193.00 93.00 C 192.45 93.55 192.00 94.90 192.00 96.00 C 192.00 97.10 189.97 102.05 187.50 107.00 C 183.83 114.33 181.61 117.30 175.50 123.00 C 170.72 127.46 165.64 131.09 161.50 133.00 C 157.93 134.65 151.18 136.90 146.50 138.00 C 139.53 139.64 135.76 139.91 125.50 139.50 C 117.36 139.17 110.56 138.30 106.00 137.00 C 102.15 135.90 94.72 132.97 89.50 130.50 C 83.72 127.76 80.00 125.41 80.00 124.50 C 80.00 123.67 80.90 122.33 84.00 120.00" vector-effect="non-scaling-stroke"/>
		<path stroke="#FEB61B" d="M 84.00 120.00 L 84.00 120.00 C 84.00 120.00 88.28 121.35 93.50 123.00 C 98.72 124.65 107.28 126.45 112.50 127.00 C 120.07 127.80 123.52 127.70 129.50 126.50 C 133.62 125.67 139.47 123.88 142.50 122.50 C 145.88 120.96 150.50 117.50 154.50 113.50 C 159.39 108.61 161.99 104.89 165.00 98.50 C 168.96 90.09 169.06 89.98 174.50 88.00 C 177.83 86.79 182.17 84.03 185.50 81.00 C 188.86 77.94 192.17 73.67 194.00 70.00 C 195.65 66.70 197.45 61.52 198.00 58.50 C 198.55 55.48 198.78 47.38 198.50 40.50 C 198.22 33.43 197.35 26.05 196.50 23.50 C 195.68 21.02 195.22 18.77 195.50 18.50 C 195.78 18.23 196.90 18.90 200.00 22.00" vector-effect="non-scaling-stroke"/>
		<path stroke="#FCBE4C" d="M 72.00 99.00 L 72.00 99.00 C 72.00 99.00 74.25 94.28 77.00 88.50 C 81.10 79.90 83.45 76.46 90.00 69.50 C 94.40 64.83 101.38 58.75 105.50 56.00 C 109.62 53.25 116.38 49.65 120.50 48.00 C 124.62 46.35 129.80 44.77 132.00 44.50 C 135.25 44.09 135.91 44.28 135.50 45.50 C 135.22 46.33 133.88 49.25 130.00 57.00" vector-effect="non-scaling-stroke"/>
		<path stroke="#FEB61B" d="M 130.00 57.00 L 130.00 57.00 C 130.00 57.00 129.10 59.02 128.00 61.50 C 126.90 63.98 124.20 68.25 122.00 71.00 C 119.80 73.75 113.05 81.62 107.00 88.50 C 100.95 95.38 91.95 104.83 87.00 109.50 C 82.05 114.17 75.97 119.35 73.50 121.00 C 71.03 122.65 69.00 124.45 69.00 125.00 C 69.00 125.55 72.15 127.80 76.00 130.00 C 79.85 132.20 83.00 134.45 83.00 135.00 C 83.00 135.55 81.42 137.57 79.50 139.50 C 77.58 141.43 74.65 145.93 73.00 149.50 C 71.35 153.07 69.55 158.25 68.00 166.00 L 67.00 159.50 C 66.45 155.93 65.78 148.95 65.50 144.00 C 65.22 139.05 65.45 130.50 66.00 125.00 C 66.55 119.50 68.12 111.40 72.00 99.00" vector-effect="non-scaling-stroke"/>
		<path stroke="#FEB61B" d="M 72.00 99.00 L 72.00 99.00 C 72.00 99.00 73.58 97.65 75.50 96.00 C 77.42 94.35 81.47 89.85 84.50 86.00 C 87.53 82.15 93.60 76.08 98.00 72.50 C 102.40 68.92 110.50 63.75 116.00 61.00 C 122.00 58.00 126.80 56.20 130.00 57.00" vector-effect="non-scaling-stroke"/>
		<path stroke="#FDBD4B" d="M 221.00 114.00 C 221.00 110.33 221.39 108.19 222.00 108.50 C 222.55 108.78 224.12 112.15 225.50 116.00 C 227.38 121.25 228.00 125.00 228.00 131.00 C 228.00 135.40 227.55 140.57 227.00 142.50 C 226.45 144.43 224.65 148.47 223.00 151.50 C 221.35 154.53 219.55 157.00 219.00 157.00 C 218.45 157.00 218.00 155.43 218.00 153.50 C 218.00 151.57 217.32 147.07 216.50 143.50 C 215.68 139.93 213.88 134.30 212.50 131.00 C 211.12 127.70 210.22 124.78 210.50 124.50 C 210.78 124.22 212.57 125.12 214.50 126.50 C 216.43 127.88 218.45 129.00 219.00 129.00 C 219.55 129.00 220.22 126.97 220.50 124.50 C 220.78 122.03 221.00 117.30 221.00 114.00" vector-effect="non-scaling-stroke"/>
		<path stroke="#D4E4F1" d="M 196.00 216.00 L 196.00 216.00 C 196.00 216.00 195.78 216.22 195.50 216.50 C 195.22 216.78 191.40 219.03 179.00 226.00" vector-effect="non-scaling-stroke"/>
		<path stroke="#D4E4F1" d="M 137.00 234.00 L 137.00 234.00 C 137.00 234.00 132.95 233.55 128.00 233.00 C 122.63 232.40 115.77 230.79 111.00 229.00 C 106.60 227.35 99.85 223.97 96.00 221.50 C 92.15 219.03 87.42 215.20 85.50 213.00 C 83.58 210.80 80.65 206.07 79.00 202.50 C 77.35 198.93 75.10 192.62 74.00 188.50 C 72.84 184.17 72.00 177.83 72.00 173.50 C 72.00 168.67 72.71 163.87 76.00 154.00" vector-effect="non-scaling-stroke"/>
		<path stroke="#D4E4F1" d="M 165.00 137.00 L 165.00 137.00 C 165.00 137.00 166.35 136.10 168.00 135.00 C 169.65 133.90 171.22 133.00 172.00 133.00" vector-effect="non-scaling-stroke"/>
		<path stroke="#111920" d="M 172.00 133.00 L 172.00 133.00 C 172.00 133.00 173.57 133.22 175.50 133.50 C 177.43 133.78 181.25 135.12 184.00 136.50 C 186.75 137.88 191.03 140.80 193.50 143.00 C 195.97 145.20 198.90 149.03 200.00 151.50 C 201.10 153.97 202.22 158.93 202.50 162.50 C 202.78 166.07 203.45 169.00 204.00 169.00 C 204.55 169.00 207.47 166.75 210.50 164.00 C 213.53 161.25 216.22 159.22 216.50 159.50 C 216.78 159.78 214.97 166.07 212.50 173.50 C 210.03 180.93 208.00 187.22 208.00 187.50 C 208.00 187.78 210.47 186.65 213.50 185.00 C 216.53 183.35 219.22 182.22 219.50 182.50 C 219.78 182.78 218.43 186.38 216.50 190.50 C 214.57 194.62 211.65 200.03 210.00 202.50 C 208.35 204.97 206.32 207.00 205.50 207.00 C 204.68 207.00 202.20 209.03 196.00 216.00" vector-effect="non-scaling-stroke"/>
		<path stroke="#111920" d="M 196.00 216.00 L 196.00 216.00 C 196.00 216.00 198.03 213.53 200.50 210.50 C 202.97 207.47 206.12 202.75 207.50 200.00 C 208.88 197.25 209.78 194.78 209.50 194.50 C 209.22 194.22 206.75 194.90 204.00 196.00 C 201.25 197.10 198.78 197.78 198.50 197.50 C 198.22 197.22 199.35 192.95 201.00 188.00 C 202.65 183.05 203.78 178.78 203.50 178.50 C 203.22 178.22 200.97 179.12 198.50 180.50 C 195.23 182.32 194.14 182.59 194.50 181.50 C 194.78 180.68 195.45 177.30 196.00 174.00 C 196.55 170.70 196.78 164.85 196.50 161.00 C 196.22 157.15 195.32 152.65 194.50 151.00 C 193.68 149.35 191.20 146.20 189.00 144.00 C 186.80 141.80 182.07 138.43 172.00 133.00" vector-effect="non-scaling-stroke"/>
		<path stroke="#C8D4DF" d="M 165.00 137.00 L 165.00 137.00 C 165.00 137.00 162.97 139.25 160.50 142.00 C 157.50 145.33 153.83 148.00 149.50 150.00 C 145.93 151.65 140.30 153.68 137.00 154.50 C 133.70 155.32 126.95 156.45 113.00 158.00" vector-effect="non-scaling-stroke"/>
		<path stroke="#C8D4DF" d="M 93.00 154.00 L 93.00 154.00 C 93.00 154.00 90.97 152.88 88.50 151.50 C 86.03 150.12 83.33 148.10 82.50 147.00 C 81.05 145.07 80.93 145.13 79.00 149.00 C 77.90 151.20 76.78 153.22 76.00 154.00" vector-effect="non-scaling-stroke"/>
		<path stroke="#C8D4DF" d="M 76.00 154.00 L 76.00 154.00 C 76.00 154.00 76.45 152.88 77.00 151.50 C 77.55 150.12 79.58 146.30 81.50 143.00 C 84.56 137.75 85.31 137.06 87.50 137.50 C 88.88 137.78 93.83 139.35 98.50 141.00 C 103.17 142.65 110.15 144.45 114.00 145.00 C 117.85 145.55 125.95 145.78 132.00 145.50 C 138.84 145.19 145.46 144.24 149.50 143.00 C 153.07 141.90 158.03 140.10 165.00 137.00" vector-effect="non-scaling-stroke"/>
		<path stroke="#111921" d="M 153.00 154.00 C 155.75 152.90 160.25 152.00 163.00 152.00 C 165.75 152.00 168.22 152.45 168.50 153.00 C 168.78 153.55 167.43 154.22 165.50 154.50 C 163.57 154.78 159.30 156.35 156.00 158.00 C 152.70 159.65 148.43 162.35 146.50 164.00 C 144.57 165.65 141.65 169.03 140.00 171.50 C 138.35 173.97 136.78 175.55 136.50 175.00 C 136.22 174.45 137.12 171.53 138.50 168.50 C 139.88 165.47 142.57 161.43 144.50 159.50 C 146.43 157.57 150.25 155.10 153.00 154.00" vector-effect="non-scaling-stroke"/>
		<path stroke="#101820" d="M 113.00 158.00 L 113.00 158.00 C 113.00 158.00 114.58 159.57 116.50 161.50 C 118.60 163.60 120.60 167.01 121.50 170.00 C 122.33 172.75 122.78 175.22 122.50 175.50 C 122.22 175.78 120.65 173.97 119.00 171.50 C 117.35 169.03 114.20 165.43 112.00 163.50 C 109.80 161.57 106.20 159.10 104.00 158.00 C 101.80 156.90 98.42 155.55 93.00 154.00" vector-effect="non-scaling-stroke"/>
		<path stroke="#101820" d="M 93.00 154.00 L 93.00 154.00 C 93.00 154.00 95.47 153.78 98.50 153.50 C 103.08 153.08 104.75 153.42 113.00 158.00" vector-effect="non-scaling-stroke"/>
		<path stroke="#111921" d="M 93.00 165.50 C 94.65 164.68 98.03 164.00 100.50 164.00 C 102.97 164.00 106.12 164.45 107.50 165.00 C 108.88 165.55 111.58 167.35 113.50 169.00 C 115.42 170.65 117.67 173.35 118.50 175.00 C 119.33 176.65 120.00 178.45 120.00 179.00 C 120.00 179.55 119.10 179.10 118.00 178.00 C 116.90 176.90 115.78 176.00 115.50 176.00 C 115.22 176.00 114.78 177.35 114.50 179.00 C 114.22 180.65 112.88 183.12 111.50 184.50 C 110.12 185.88 109.00 187.45 109.00 188.00 C 109.00 188.56 107.67 188.78 106.00 188.50 C 104.35 188.22 100.97 187.78 98.50 187.50 C 94.50 187.06 94.00 186.72 94.00 184.50 C 94.00 183.12 93.78 179.97 93.50 177.50 C 93.17 174.50 93.50 172.17 94.50 170.50 C 95.33 169.12 95.55 168.00 95.00 168.00 C 94.45 168.00 92.42 168.68 90.50 169.50 C 87.06 170.97 87.03 170.96 88.50 169.00 C 89.33 167.90 91.35 166.32 93.00 165.50" vector-effect="non-scaling-stroke"/>
		<path stroke="#111922" d="M 152.00 166.00 C 154.22 164.89 158.00 164.00 160.50 164.00 C 162.97 164.00 166.57 164.45 168.50 165.00 C 170.43 165.55 172.90 167.12 176.00 171.00 L 172.50 169.50 C 170.57 168.68 168.32 168.00 167.50 168.00 C 166.17 168.00 166.17 168.33 167.50 171.00 C 168.43 172.87 168.81 175.51 168.50 178.00 C 168.22 180.20 167.78 182.68 167.50 183.50 C 167.19 184.42 167.77 185.19 169.00 185.50 C 170.10 185.78 170.78 186.22 170.50 186.50 C 170.22 186.78 167.53 187.45 164.50 188.00 C 161.47 188.55 157.88 189.22 156.50 189.50 C 154.60 189.88 154.12 189.64 154.50 188.50 C 154.80 187.61 154.39 187.00 153.50 187.00 C 152.68 187.00 151.10 185.88 150.00 184.50 C 148.90 183.12 147.78 180.20 147.00 174.00 L 143.50 176.50 C 141.57 177.88 140.00 178.55 140.00 178.00 C 140.00 177.45 141.80 174.97 144.00 172.50 C 146.20 170.03 149.80 167.10 152.00 166.00" vector-effect="non-scaling-stroke"/>
		<path stroke="#FFFFFF" d="M 96.00 179.00 C 96.00 177.53 96.67 177.00 98.50 177.00 C 99.88 177.00 101.22 177.68 101.50 178.50 C 101.78 179.32 101.33 180.68 100.50 181.50 C 99.67 182.32 98.33 182.78 97.50 182.50 C 96.67 182.22 96.00 181.78 96.00 181.50 C 96.00 181.22 96.00 180.10 96.00 179.00" vector-effect="non-scaling-stroke"/>
		<path stroke="#FFFFFF" d="M 152.00 177.50 C 152.55 177.22 153.90 177.68 155.00 178.50 C 156.10 179.32 156.78 180.68 156.50 181.50 C 156.19 182.42 155.23 182.81 154.00 182.50 C 152.90 182.22 151.78 181.10 151.50 180.00 C 151.22 178.90 151.45 177.78 152.00 177.50" vector-effect="non-scaling-stroke"/>
		<path stroke="#161E26" d="M 168.50 202.00 C 167.40 201.27 168.33 201.00 172.00 201.00 C 176.40 201.00 177.12 201.30 178.00 203.50 C 178.55 204.88 178.78 207.12 178.50 208.50 C 178.09 210.55 177.82 210.73 177.00 209.50 C 176.45 208.68 175.78 207.78 175.50 207.50 C 175.22 207.22 172.30 209.03 169.00 211.50 C 165.70 213.97 160.53 216.90 157.50 218.00 C 154.47 219.10 148.85 220.45 145.00 221.00 C 140.33 221.67 135.17 221.67 129.50 221.00 C 124.83 220.45 120.78 219.55 120.50 219.00 C 120.18 218.35 123.17 218.18 129.00 218.50 C 134.91 218.83 140.57 218.49 145.50 217.50 C 149.62 216.68 155.70 214.65 159.00 213.00 C 162.30 211.35 166.35 208.65 168.00 207.00 C 169.65 205.35 170.78 203.78 170.50 203.50 C 170.22 203.22 169.32 202.55 168.50 202.00" vector-effect="non-scaling-stroke"/>
		<path stroke="#EE8803" d="M 260.00 245.00 L 260.00 245.00 C 260.00 245.00 260.90 246.35 262.00 248.00 C 263.10 249.65 264.68 252.80 265.50 255.00 C 266.34 257.25 267.00 262.28 267.00 266.50 C 267.00 270.72 266.34 275.75 265.50 278.00 C 264.68 280.20 262.88 283.57 261.50 285.50 C 259.25 288.65 259.05 289.70 259.50 296.00 C 259.82 300.41 259.45 305.40 258.50 309.50 C 257.68 313.07 256.10 318.02 255.00 320.50 C 253.90 322.98 252.55 325.00 252.00 325.00 C 251.45 325.00 251.00 324.10 251.00 323.00 C 251.00 321.90 249.88 318.75 248.50 316.00 C 247.12 313.25 244.20 309.20 242.00 307.00 C 239.80 304.80 235.07 301.65 231.50 300.00 C 227.93 298.35 222.97 296.55 220.50 296.00 C 218.03 295.45 212.18 294.55 199.00 293.00" vector-effect="non-scaling-stroke"/>
		<path stroke="#EE8803" d="M 218.00 271.00 L 218.00 271.00 C 218.00 271.00 218.45 270.55 219.00 270.00 C 219.67 269.33 218.50 269.00 215.50 269.00 C 213.03 269.00 208.75 269.68 206.00 270.50 C 203.25 271.32 199.20 273.12 197.00 274.50 C 194.80 275.88 191.20 279.02 189.00 281.50 C 186.80 283.98 184.10 287.80 183.00 290.00 C 181.90 292.20 180.32 296.25 179.50 299.00 C 178.68 301.75 178.00 305.80 178.00 308.00 C 178.00 311.33 177.67 312.00 176.00 312.00 C 174.90 312.00 170.62 312.90 166.50 314.00 C 162.38 315.10 154.95 317.80 141.00 324.00 L 132.00 322.00 C 127.05 320.90 117.83 319.55 111.50 319.00 C 103.83 318.33 96.17 318.33 88.50 319.00 C 82.17 319.55 74.75 320.68 72.00 321.50 C 69.25 322.32 66.78 322.77 66.50 322.50 C 66.22 322.23 66.00 310.52 66.00 296.50 C 66.00 282.48 66.22 269.20 66.50 267.00 C 66.94 263.44 66.83 263.17 65.50 264.50 C 64.67 265.32 63.10 268.93 62.00 272.50 C 60.76 276.54 59.81 283.16 59.50 290.00 C 59.23 296.05 59.45 303.25 60.00 306.00 C 60.55 308.75 60.77 311.23 60.50 311.50 C 60.23 311.77 58.20 310.65 56.00 309.00 C 53.80 307.35 49.75 305.10 47.00 304.00 C 43.56 302.62 39.67 302.00 34.50 302.00 C 28.90 302.00 25.35 302.63 20.50 304.50 C 16.92 305.88 13.78 306.77 13.50 306.50 C 13.22 306.23 15.02 301.73 17.50 296.50 C 21.88 287.25 21.97 286.85 21.00 281.50 C 20.45 278.48 20.23 273.98 20.50 271.50 C 20.77 269.02 21.90 264.07 23.00 260.50 C 24.10 256.93 25.90 253.10 29.00 250.00" vector-effect="non-scaling-stroke"/>
		<path stroke="#EE8803" d="M 121.00 235.00 L 121.00 235.00 C 121.00 235.00 124.60 235.00 129.00 235.00 C 133.40 235.00 137.00 234.78 137.00 234.00" vector-effect="non-scaling-stroke"/>
		<path stroke="#EE8803" d="M 137.00 234.00 L 137.00 234.00 C 137.00 234.00 139.70 234.00 143.00 234.00 C 146.30 234.00 152.60 233.32 157.00 232.50 C 161.40 231.68 168.15 229.88 179.00 226.00" vector-effect="non-scaling-stroke"/>
		<path stroke="#EE8803" d="M 179.00 226.00 L 179.00 226.00 C 179.00 226.00 180.12 226.00 181.50 226.00 C 182.88 226.00 186.70 225.10 190.00 224.00 C 193.30 222.90 197.80 221.10 200.00 220.00 C 202.20 218.90 204.90 218.00 206.00 218.00 C 207.10 218.00 213.40 220.70 232.00 230.00" vector-effect="non-scaling-stroke"/>
		<path stroke="#F4993D" d="M 121.00 235.00 L 121.00 235.00 C 121.00 235.00 120.33 235.45 119.50 236.00 C 118.67 236.55 115.08 238.35 111.50 240.00 C 106.78 242.18 102.81 245.19 97.00 251.00 C 92.60 255.40 87.42 261.70 85.50 265.00 C 83.58 268.30 80.65 272.80 79.00 275.00 C 76.79 277.95 75.47 278.87 74.00 278.50 C 72.90 278.23 71.33 276.88 70.50 275.50 C 69.67 274.12 68.55 272.10 68.00 271.00 C 67.26 269.52 67.39 268.61 68.50 267.50 C 69.33 266.68 70.00 264.88 70.00 263.50 C 70.00 262.12 70.45 260.10 71.00 259.00 C 71.67 257.67 71.67 256.83 71.00 256.50 C 70.45 256.23 69.78 256.45 69.50 257.00 C 69.22 257.55 66.53 259.57 63.50 261.50 C 60.48 263.43 55.75 265.90 53.00 267.00 C 50.12 268.15 45.67 269.00 42.50 269.00 C 39.48 269.00 35.65 268.32 34.00 267.50 C 32.35 266.68 30.32 265.10 29.50 264.00 C 28.40 262.53 28.13 260.40 29.00 250.00" vector-effect="non-scaling-stroke"/>
		<path stroke="#F4993D" d="M 29.00 250.00 L 29.00 250.00 C 29.00 250.00 30.12 248.43 31.50 246.50 C 32.88 244.57 36.02 241.65 38.50 240.00 C 40.98 238.35 45.92 236.10 49.50 235.00 C 53.08 233.90 57.58 232.78 59.50 232.50 C 61.42 232.22 67.72 229.97 84.00 223.00 L 89.00 226.00 C 91.75 227.65 97.60 230.12 102.00 231.50 C 106.40 232.88 112.47 234.22 121.00 235.00" vector-effect="non-scaling-stroke"/>
		<path stroke="#F4993E" d="M 232.00 230.00 L 232.00 230.00 C 232.00 230.00 234.03 230.45 236.50 231.00 C 238.97 231.55 243.70 233.35 247.00 235.00 C 250.30 236.65 254.57 239.57 260.00 245.00" vector-effect="non-scaling-stroke"/>
		<path stroke="#F4993E" d="M 260.00 245.00 L 260.00 245.00 C 260.00 245.00 257.75 245.00 255.00 245.00 C 252.25 245.00 246.18 246.12 241.50 247.50 C 235.65 249.22 231.60 249.84 228.50 249.50 C 226.03 249.22 222.88 248.10 221.50 247.00 C 220.12 245.90 219.00 244.32 219.00 243.50 C 219.00 242.50 218.33 242.17 217.00 242.50 C 215.90 242.78 213.43 243.22 211.50 243.50 C 209.57 243.78 207.10 243.55 206.00 243.00 C 204.90 242.45 204.00 241.10 204.00 240.00 C 204.00 238.90 205.12 237.10 206.50 236.00 C 207.88 234.90 210.57 233.55 212.50 233.00 C 214.43 232.45 219.60 231.55 232.00 230.00" vector-effect="non-scaling-stroke"/>
		<path stroke="#111920" d="M 107.00 252.00 L 159.00 252.00 L 159.50 254.50 C 159.78 255.88 160.45 258.80 161.00 261.00 C 161.55 263.20 162.45 265.23 163.00 265.50 C 163.55 265.77 164.90 267.80 166.00 270.00 C 167.64 273.27 168.00 276.00 168.00 285.00 C 168.00 293.83 167.61 296.89 166.00 300.50 C 164.90 302.98 162.65 305.90 161.00 307.00 C 158.59 308.61 156.33 309.00 149.50 309.00 C 144.82 309.00 141.00 309.23 141.00 309.50 C 141.00 309.77 141.45 311.35 143.00 316.00 L 123.00 316.00 L 124.00 309.00 L 118.00 309.50 C 114.70 309.77 110.20 309.55 108.00 309.00 C 105.80 308.45 103.10 306.88 102.00 305.50 C 100.16 303.20 100.00 301.50 100.00 284.50 C 100.00 266.10 100.01 265.99 102.50 263.50 C 103.88 262.12 105.45 258.98 107.00 252.00" vector-effect="non-scaling-stroke"/>
		<path stroke="#FEFEFE" d="M 109.00 256.50 C 109.00 256.23 119.80 256.00 133.00 256.00 C 153.67 256.00 157.00 256.21 157.00 257.50 C 157.00 258.32 157.22 259.90 157.50 261.00 C 157.98 262.93 157.62 262.98 136.00 262.00 L 136.00 285.50 C 136.00 299.17 136.42 309.84 137.00 311.00 C 137.93 312.87 137.67 313.00 128.00 313.00 L 129.00 262.00 L 107.00 263.00 L 108.00 260.00 C 108.55 258.35 109.00 256.77 109.00 256.50" vector-effect="non-scaling-stroke"/>
		<path stroke="#A9A49C" d="M 141.00 268.00 L 141.00 268.00 C 141.00 268.00 140.55 267.77 140.00 267.50 C 139.45 267.23 139.22 266.55 139.50 266.00 C 139.78 265.45 141.80 265.00 148.00 265.00" vector-effect="non-scaling-stroke"/>
		<path stroke="#FEFEFE" d="M 148.00 265.00 L 148.00 265.00 C 148.00 265.00 150.03 265.23 152.50 265.50 C 154.97 265.77 158.12 266.68 159.50 267.50 C 160.88 268.32 162.68 270.35 163.50 272.00 C 164.52 274.04 165.00 278.06 165.00 284.50 C 165.00 289.73 164.55 295.57 164.00 297.50 C 163.45 299.43 161.65 302.12 160.00 303.50 C 157.32 305.74 156.10 306.00 148.50 306.00 C 141.39 306.00 140.08 305.75 140.50 304.50 C 140.78 303.68 141.00 295.12 141.00 268.00" vector-effect="non-scaling-stroke"/>
		<path stroke="#FEFEFE" d="M 141.00 268.00 L 141.00 268.00 C 141.00 268.00 140.78 267.55 140.50 267.00 C 140.22 266.45 141.80 265.77 148.00 265.00" vector-effect="non-scaling-stroke"/>
		<path stroke="#FEFEFE" d="M 103.00 266.00 L 111.00 266.00 L 111.00 282.50 C 111.00 296.06 111.27 299.18 112.50 300.00 C 113.50 300.67 114.50 300.67 115.50 300.00 C 116.73 299.18 117.00 296.06 117.00 266.00 L 126.00 266.00 L 126.00 306.00 L 120.00 306.50 C 116.70 306.77 112.65 306.77 111.00 306.50 C 109.35 306.23 106.88 305.32 103.00 303.00 L 103.00 266.00" vector-effect="non-scaling-stroke"/>
		<path stroke="#101820" d="M 148.00 271.00 L 151.50 271.50 C 153.83 271.83 155.50 272.83 156.50 274.50 C 157.52 276.20 158.00 279.72 158.00 285.50 C 158.00 291.28 157.52 294.80 156.50 296.50 C 155.50 298.17 153.83 299.17 151.50 299.50 C 149.57 299.77 148.00 299.77 148.00 299.50 C 148.00 299.23 148.00 292.70 148.00 271.00" vector-effect="non-scaling-stroke"/>
		<path stroke="#F4993C" d="M 218.00 271.00 L 218.00 271.00 C 218.00 271.00 218.45 271.23 219.00 271.50 C 219.55 271.77 220.00 273.12 220.00 274.50 C 220.00 275.88 219.32 278.35 218.50 280.00 C 217.68 281.65 215.20 284.35 213.00 286.00 C 210.80 287.65 206.97 289.45 204.50 290.00 C 202.03 290.55 199.78 291.45 199.00 293.00" vector-effect="non-scaling-stroke"/>
		<path stroke="#F4993C" d="M 199.00 293.00 L 199.00 293.00 C 199.00 293.00 196.30 293.23 187.00 294.00 L 188.50 291.00 C 189.32 289.35 192.70 285.52 196.00 282.50 C 199.30 279.48 204.70 275.65 208.00 274.00 C 211.30 272.35 214.90 271.00 218.00 271.00" vector-effect="non-scaling-stroke"/>
		<path stroke="#161B1F" d="M 224.00 287.00 L 233.50 289.00 C 238.72 290.10 244.80 291.90 247.00 293.00 C 249.20 294.10 251.68 296.12 252.50 297.50 C 253.32 298.88 254.45 301.80 255.00 304.00 C 255.55 306.20 255.78 308.45 255.50 309.00 C 255.22 309.55 253.65 307.98 252.00 305.50 C 250.35 303.02 247.65 299.88 246.00 298.50 C 244.35 297.12 241.20 295.10 239.00 294.00 C 236.80 292.90 232.53 290.88 224.00 287.00" vector-effect="non-scaling-stroke"/>
		<path stroke="#11181F" d="M 33.50 296.50 C 36.27 295.58 39.92 295.19 43.00 295.50 C 47.02 295.90 48.69 296.69 51.50 299.50 C 53.42 301.43 55.00 303.45 55.00 304.00 C 55.00 304.55 52.52 303.88 49.50 302.50 C 44.87 300.39 42.50 300.00 34.50 300.00 C 27.50 300.00 25.53 299.74 27.00 299.00 C 28.10 298.45 31.02 297.32 33.50 296.50" vector-effect="non-scaling-stroke"/>
		<path stroke="#D4E4F1" d="M 102.00 366.00 L 102.00 366.00 C 102.00 366.00 104.25 363.52 107.00 360.50 C 109.75 357.48 116.28 351.40 121.50 347.00 C 126.72 342.60 135.05 336.30 140.00 333.00 C 144.95 329.70 152.60 325.20 157.00 323.00 C 161.40 320.80 167.93 318.10 171.50 317.00 C 175.07 315.90 180.93 314.32 191.00 312.00 L 185.00 312.00 C 180.11 312.00 179.09 311.72 179.50 310.50 C 179.78 309.68 180.68 307.20 181.50 305.00 C 182.89 301.29 183.33 300.96 187.50 300.50 C 189.97 300.23 196.05 300.00 201.00 300.00 C 205.95 300.00 212.47 300.68 215.50 301.50 C 218.53 302.32 222.80 303.90 229.00 307.00" vector-effect="non-scaling-stroke"/>
		<path stroke="#C9D5E0" d="M 229.00 307.00 L 229.00 307.00 C 229.00 307.00 230.35 307.68 232.00 308.50 C 233.65 309.32 236.80 311.57 239.00 313.50 C 241.20 315.43 244.57 319.48 250.00 328.00 L 247.50 332.50 C 246.12 334.98 243.65 338.80 242.00 341.00 C 240.35 343.20 236.97 347.25 234.50 350.00 C 232.03 352.75 228.88 357.25 227.50 360.00 C 226.12 362.75 223.88 366.35 222.50 368.00 C 221.12 369.65 217.97 372.12 215.50 373.50 C 212.23 375.32 208.41 376.27 201.50 377.00 C 195.80 377.60 190.40 378.80 188.00 380.00 C 185.80 381.10 181.07 382.68 177.50 383.50 C 172.42 384.67 166.64 384.89 151.00 384.50 C 140.00 384.23 126.95 383.32 122.00 382.50 C 117.05 381.68 108.28 380.10 102.50 379.00 C 96.72 377.90 92.00 376.55 92.00 376.00 C 92.00 375.45 94.25 372.98 102.00 366.00" vector-effect="non-scaling-stroke"/>
		<path stroke="#C9D5E0" d="M 102.00 366.00 L 102.00 366.00 C 102.00 366.00 125.40 366.00 154.00 366.00 C 204.00 366.00 206.15 365.92 210.00 364.00 C 212.20 362.90 215.35 360.43 217.00 358.50 C 218.65 356.57 220.22 354.10 220.50 353.00 C 220.78 351.90 220.55 350.32 219.00 348.00" vector-effect="non-scaling-stroke"/>
		<path stroke="#C9D5E0" d="M 220.00 347.00 L 220.00 347.00 C 220.00 347.00 220.45 345.65 221.00 344.00 C 221.55 342.35 222.45 336.27 223.00 330.50 C 223.64 323.77 224.90 317.67 229.00 307.00" vector-effect="non-scaling-stroke"/>
		<path stroke="#D4E4F1" d="M 53.00 328.00 L 53.00 328.00 C 53.00 328.00 50.30 329.57 47.00 331.50 C 43.70 333.43 38.30 337.48 35.00 340.50 C 31.70 343.52 29.23 346.23 29.50 346.50 C 29.77 346.77 32.02 345.43 34.50 343.50 C 36.98 341.57 42.60 338.20 47.00 336.00 C 51.40 333.80 58.60 330.88 63.00 329.50 C 67.40 328.12 75.05 326.32 80.00 325.50 C 85.79 324.54 95.78 324.00 108.00 324.00 C 118.45 324.00 129.47 324.23 132.50 324.50 C 135.69 324.79 137.79 325.42 137.50 326.00 C 137.22 326.55 134.75 328.57 127.00 334.00" vector-effect="non-scaling-stroke"/>
		<path stroke="#D4E4F1" d="M 15.00 378.00 L 15.00 378.00 C 15.00 378.00 14.55 377.10 14.00 376.00 C 13.45 374.90 11.88 370.18 10.50 365.50 C 9.12 360.82 7.55 352.73 7.00 347.50 C 6.33 341.17 6.33 335.00 7.00 329.00 C 7.55 324.05 8.68 318.88 9.50 317.50 C 10.32 316.12 12.80 314.10 15.00 313.00 C 17.20 311.90 21.92 310.32 25.50 309.50 C 30.60 308.32 33.51 308.22 39.00 309.00 C 42.85 309.55 48.02 310.90 55.00 314.00" vector-effect="non-scaling-stroke"/>
		<path stroke="#C9D5E0" d="M 55.00 314.00 L 55.00 314.00 C 55.00 314.00 56.58 314.90 58.50 316.00 C 60.42 317.10 62.45 319.12 63.00 320.50 C 63.55 321.88 63.77 323.23 63.50 323.50 C 63.23 323.77 60.75 324.90 53.00 328.00" vector-effect="non-scaling-stroke"/>
		<path stroke="#C9D5E0" d="M 53.00 328.00 L 53.00 328.00 C 53.00 328.00 53.45 326.65 54.00 325.00 C 54.55 323.35 55.00 320.20 55.00 314.00" vector-effect="non-scaling-stroke"/>
		<path stroke="#C9D5E0" d="M 127.00 334.00 L 127.00 334.00 C 127.00 334.00 123.17 337.38 118.50 341.50 C 113.83 345.62 107.53 352.15 104.50 356.00 C 101.47 359.85 96.53 366.38 93.50 370.50 C 89.33 376.18 86.79 378.61 83.00 380.50 C 80.25 381.88 75.30 383.90 72.00 385.00 C 68.70 386.10 62.40 387.90 58.00 389.00 C 52.32 390.42 46.67 391.00 38.50 391.00 C 28.83 391.00 26.44 390.68 23.50 389.00 C 21.55 387.88 18.90 385.01 15.00 378.00" vector-effect="non-scaling-stroke"/>
		<path stroke="#C9D5E0" d="M 15.00 378.00 L 15.00 378.00 C 15.00 378.00 17.25 378.90 20.00 380.00 C 23.06 381.22 27.33 382.00 31.00 382.00 C 34.30 382.00 39.02 381.32 41.50 380.50 C 44.34 379.55 49.69 375.86 56.00 370.50 C 61.50 365.82 70.72 359.30 76.50 356.00 C 82.28 352.70 91.72 347.75 97.50 345.00 C 103.28 342.25 111.38 338.65 115.50 337.00 C 119.62 335.35 123.90 334.00 127.00 334.00" vector-effect="non-scaling-stroke"/>
		<path stroke="#101820" d="M 220.00 347.00 L 220.00 347.00 C 220.00 347.00 220.00 347.23 220.00 347.50 C 220.00 347.77 219.78 348.00 219.00 348.00" vector-effect="non-scaling-stroke"/>
		<path stroke="#101820" d="M 219.00 348.00 L 219.00 348.00 C 219.00 348.00 217.65 348.00 216.00 348.00 C 214.35 348.00 209.85 349.57 206.00 351.50 C 202.15 353.43 198.55 354.77 198.00 354.50 C 197.45 354.23 198.35 352.43 200.00 350.50 C 201.65 348.57 204.35 346.32 206.00 345.50 C 207.65 344.68 210.80 344.00 213.00 344.00 C 215.22 344.00 217.67 344.67 220.00 347.00" vector-effect="non-scaling-stroke"/>
	</g>
	<path fill="#101820FB" d="M 184.00 1.00 C 196.52 10.39 202.39 16.04 205.50 20.00 C 208.53 23.85 211.90 28.57 213.00 30.50 C 214.10 32.42 216.35 38.05 218.00 43.00 C 220.74 51.22 221.00 53.17 221.00 65.50 C 221.00 73.83 221.38 79.00 222.00 79.00 C 222.55 79.00 225.47 76.75 228.50 74.00 C 231.53 71.25 234.22 69.22 234.50 69.50 C 234.78 69.78 236.80 74.50 239.00 80.00 C 241.20 85.50 244.12 94.05 245.50 99.00 C 246.88 103.95 248.45 112.95 249.00 119.00 C 249.67 126.33 249.67 133.17 249.00 139.50 C 248.45 144.72 247.10 152.60 246.00 157.00 C 244.90 161.40 242.20 169.05 240.00 174.00 C 237.80 178.95 233.53 186.82 230.50 191.50 C 227.47 196.18 221.85 203.38 218.00 207.50 C 213.33 212.50 211.33 215.33 212.00 216.00 C 212.55 216.55 216.38 218.35 220.50 220.00 C 224.62 221.65 231.15 223.68 235.00 224.50 C 238.85 225.32 245.15 227.57 249.00 229.50 C 253.12 231.56 258.26 235.26 261.50 238.50 C 264.61 241.61 268.09 246.39 269.50 249.50 C 271.30 253.46 272.14 257.37 272.50 263.50 C 272.77 268.18 272.55 273.12 272.00 274.50 C 271.45 275.88 269.65 279.93 268.00 283.50 C 265.64 288.61 265.00 291.39 265.00 296.50 C 265.00 300.07 264.32 306.38 263.50 310.50 C 262.68 314.62 260.65 321.60 259.00 326.00 C 257.35 330.40 253.75 337.38 251.00 341.50 C 248.25 345.62 243.30 351.93 240.00 355.50 C 236.70 359.07 233.10 364.02 232.00 366.50 C 230.87 369.04 227.61 373.18 224.50 376.00 C 221.47 378.75 217.43 381.45 215.50 382.00 C 213.57 382.55 208.40 383.68 204.00 384.50 C 199.60 385.32 192.18 387.35 187.50 389.00 C 182.82 390.65 175.18 392.45 170.50 393.00 C 165.82 393.55 154.80 393.77 146.00 393.50 C 137.20 393.23 125.72 392.32 120.50 391.50 C 115.28 390.68 106.50 389.10 101.00 388.00 C 91.95 386.19 90.71 386.14 88.00 387.50 C 86.35 388.32 80.50 390.35 75.00 392.00 C 69.50 393.65 61.40 395.68 57.00 396.50 C 52.60 397.32 46.98 398.45 44.50 399.00 C 42.02 399.55 36.62 400.00 32.50 400.00 C 28.28 400.00 23.25 399.34 21.00 398.50 C 18.80 397.68 15.88 396.10 14.50 395.00 C 13.12 393.90 11.10 391.20 10.00 389.00 C 8.90 386.80 6.88 379.82 5.50 373.50 C 4.12 367.18 2.77 360.43 2.50 358.50 C 2.23 356.57 1.55 354.77 1.00 354.50 C 0.41 354.20 0.00 348.50 0.00 340.50 C 0.00 330.67 0.54 324.56 2.00 318.00 C 3.10 313.05 5.80 305.18 8.00 300.50 C 10.20 295.82 12.90 290.65 14.00 289.00 C 15.80 286.29 15.90 285.31 15.00 279.00 C 14.45 275.15 14.00 270.65 14.00 269.00 C 14.00 267.35 14.68 262.85 15.50 259.00 C 16.53 254.21 18.26 250.11 21.00 246.00 C 23.27 242.59 27.37 238.27 30.50 236.00 C 33.52 233.80 38.25 230.88 41.00 229.50 C 43.75 228.12 47.35 226.55 49.00 226.00 C 50.65 225.45 54.25 224.55 57.00 224.00 C 59.75 223.45 64.92 221.88 68.50 220.50 C 72.08 219.12 75.45 217.55 76.00 217.00 C 76.67 216.33 76.00 214.33 74.00 211.00 C 72.35 208.25 69.88 202.40 68.50 198.00 C 67.12 193.60 65.55 185.72 65.00 180.50 C 64.45 175.28 63.33 167.18 62.50 162.50 C 61.67 157.82 60.55 149.28 60.00 143.50 C 59.33 136.50 59.33 129.67 60.00 123.00 C 60.55 117.50 61.90 109.62 63.00 105.50 C 64.10 101.38 67.03 93.72 69.50 88.50 C 71.97 83.28 76.03 76.30 78.50 73.00 C 80.97 69.70 85.70 64.53 89.00 61.50 C 92.30 58.48 98.15 53.98 102.00 51.50 C 105.85 49.02 111.92 45.65 115.50 44.00 C 119.08 42.35 126.95 39.65 133.00 38.00 L 144.00 35.00 C 143.22 39.65 142.78 42.12 142.50 43.50 C 142.22 44.88 142.45 46.00 143.00 46.00 C 143.55 46.00 148.95 42.85 155.00 39.00 C 162.81 34.03 167.45 30.26 171.00 26.00 C 174.19 22.17 177.45 16.56 180.00 10.50 L 184.00 1.00 Z M 84.00 120.00 C 80.90 122.33 80.00 123.67 80.00 124.50 C 80.00 125.41 83.72 127.76 89.50 130.50 C 94.72 132.97 102.15 135.90 106.00 137.00 C 110.56 138.30 117.36 139.17 125.50 139.50 C 135.76 139.91 139.53 139.64 146.50 138.00 C 151.18 136.90 157.93 134.65 161.50 133.00 C 165.64 131.09 170.72 127.46 175.50 123.00 C 181.61 117.30 183.83 114.33 187.50 107.00 C 189.97 102.05 192.00 97.10 192.00 96.00 C 192.00 94.90 192.45 93.55 193.00 93.00 C 193.67 92.33 193.83 92.83 193.50 94.50 C 193.22 95.88 192.10 99.92 191.00 103.50 C 189.90 107.08 187.65 112.47 186.00 115.50 C 184.35 118.53 180.53 123.70 177.50 127.00 C 174.47 130.30 172.00 133.00 172.00 133.00 L 172.00 133.00 C 171.22 133.00 169.65 133.90 168.00 135.00 C 166.35 136.10 165.00 137.00 165.00 137.00 L 165.00 137.00 C 158.03 140.10 153.07 141.90 149.50 143.00 C 145.46 144.24 138.84 145.19 132.00 145.50 C 125.95 145.78 117.85 145.55 114.00 145.00 C 110.15 144.45 103.17 142.65 98.50 141.00 C 93.83 139.35 88.88 137.78 87.50 137.50 C 85.31 137.06 84.56 137.75 81.50 143.00 C 79.58 146.30 77.55 150.12 77.00 151.50 C 76.45 152.88 76.00 154.00 76.00 154.00 L 76.00 154.00 C 72.71 163.87 72.00 168.67 72.00 173.50 C 72.00 177.83 72.84 184.17 74.00 188.50 C 75.10 192.62 77.35 198.93 79.00 202.50 C 80.65 206.07 83.58 210.80 85.50 213.00 C 87.42 215.20 92.15 219.03 96.00 221.50 C 99.85 223.97 106.60 227.35 111.00 229.00 C 115.77 230.79 122.63 232.40 128.00 233.00 C 132.95 233.55 137.00 234.00 137.00 234.00 L 137.00 234.00 C 137.00 234.78 133.40 235.00 129.00 235.00 C 124.60 235.00 121.00 235.00 121.00 235.00 L 121.00 235.00 C 112.47 234.22 106.40 232.88 102.00 231.50 C 97.60 230.12 91.75 227.65 89.00 226.00 L 84.00 223.00 C 67.72 229.97 61.42 232.22 59.50 232.50 C 57.58 232.78 53.08 233.90 49.50 235.00 C 45.92 236.10 40.98 238.35 38.50 240.00 C 36.02 241.65 32.88 244.57 31.50 246.50 C 30.12 248.43 29.00 250.00 29.00 250.00 L 29.00 250.00 C 25.90 253.10 24.10 256.93 23.00 260.50 C 21.90 264.07 20.77 269.02 20.50 271.50 C 20.23 273.98 20.45 278.48 21.00 281.50 C 21.97 286.85 21.88 287.25 17.50 296.50 C 15.02 301.73 13.22 306.23 13.50 306.50 C 13.78 306.77 16.92 305.88 20.50 304.50 C 25.35 302.63 28.90 302.00 34.50 302.00 C 39.67 302.00 43.56 302.62 47.00 304.00 C 49.75 305.10 53.80 307.35 56.00 309.00 C 58.20 310.65 60.23 311.77 60.50 311.50 C 60.77 311.23 60.55 308.75 60.00 306.00 C 59.45 303.25 59.23 296.05 59.50 290.00 C 59.81 283.16 60.76 276.54 62.00 272.50 C 63.10 268.93 64.67 265.32 65.50 264.50 C 66.83 263.17 66.94 263.44 66.50 267.00 C 66.22 269.20 66.00 282.48 66.00 296.50 C 66.00 310.52 66.22 322.23 66.50 322.50 C 66.78 322.77 69.25 322.32 72.00 321.50 C 74.75 320.68 82.17 319.55 88.50 319.00 C 96.17 318.33 103.83 318.33 111.50 319.00 C 117.83 319.55 127.05 320.90 132.00 322.00 L 141.00 324.00 C 154.95 317.80 162.38 315.10 166.50 314.00 C 170.62 312.90 174.90 312.00 176.00 312.00 C 177.67 312.00 178.00 311.33 178.00 308.00 C 178.00 305.80 178.68 301.75 179.50 299.00 C 180.32 296.25 181.90 292.20 183.00 290.00 C 184.10 287.80 186.80 283.98 189.00 281.50 C 191.20 279.02 194.80 275.88 197.00 274.50 C 199.20 273.12 203.25 271.32 206.00 270.50 C 208.75 269.68 213.03 269.00 215.50 269.00 C 218.50 269.00 219.67 269.33 219.00 270.00 C 218.45 270.55 218.00 271.00 218.00 271.00 L 218.00 271.00 C 214.90 271.00 211.30 272.35 208.00 274.00 C 204.70 275.65 199.30 279.48 196.00 282.50 C 192.70 285.52 189.32 289.35 188.50 291.00 L 187.00 294.00 C 196.30 293.23 199.00 293.00 199.00 293.00 L 199.00 293.00 C 212.18 294.55 218.03 295.45 220.50 296.00 C 222.97 296.55 227.93 298.35 231.50 300.00 C 235.07 301.65 239.80 304.80 242.00 307.00 C 244.20 309.20 247.12 313.25 248.50 316.00 C 249.88 318.75 251.00 321.90 251.00 323.00 C 251.00 324.10 251.45 325.00 252.00 325.00 C 252.55 325.00 253.90 322.98 255.00 320.50 C 256.10 318.02 257.68 313.07 258.50 309.50 C 259.45 305.40 259.82 300.41 259.50 296.00 C 259.05 289.70 259.25 288.65 261.50 285.50 C 262.88 283.57 264.68 280.20 265.50 278.00 C 266.34 275.75 267.00 270.72 267.00 266.50 C 267.00 262.28 266.34 257.25 265.50 255.00 C 264.68 252.80 263.10 249.65 262.00 248.00 C 260.90 246.35 260.00 245.00 260.00 245.00 L 260.00 245.00 C 254.57 239.57 250.30 236.65 247.00 235.00 C 243.70 233.35 238.97 231.55 236.50 231.00 C 234.03 230.45 232.00 230.00 232.00 230.00 L 232.00 230.00 C 213.40 220.70 207.10 218.00 206.00 218.00 C 204.90 218.00 202.20 218.90 200.00 220.00 C 197.80 221.10 193.30 222.90 190.00 224.00 C 186.70 225.10 182.88 226.00 181.50 226.00 C 180.12 226.00 179.00 226.00 179.00 226.00 L 179.00 226.00 C 191.40 219.03 195.22 216.78 195.50 216.50 C 195.78 216.22 196.00 216.00 196.00 216.00 L 196.00 216.00 C 199.10 214.45 203.60 210.85 208.00 207.00 C 213.80 201.93 217.79 197.25 222.50 190.00 C 226.07 184.50 230.57 176.40 232.50 172.00 C 234.43 167.60 237.12 159.72 238.50 154.50 C 239.88 149.28 241.45 139.82 242.00 133.50 C 242.67 125.83 242.67 119.00 242.00 113.00 C 241.45 108.05 240.32 101.30 239.50 98.00 C 238.68 94.70 236.88 89.53 235.50 86.50 C 234.12 83.47 232.55 81.00 232.00 81.00 C 231.45 81.00 228.97 83.03 226.50 85.50 C 224.03 87.97 219.30 91.35 216.00 93.00 C 212.70 94.65 209.78 95.78 209.50 95.50 C 209.22 95.22 209.90 92.75 211.00 90.00 C 212.10 87.25 213.45 82.97 214.00 80.50 C 214.55 78.03 215.00 70.60 215.00 64.00 C 215.00 56.22 214.47 50.24 213.50 47.00 C 212.68 44.25 210.88 39.75 209.50 37.00 C 208.12 34.25 205.43 29.75 203.50 27.00 C 201.57 24.25 200.00 22.00 200.00 22.00 L 200.00 22.00 C 190.70 12.70 187.55 10.00 187.00 10.00 C 186.45 10.00 185.78 11.57 185.50 13.50 C 185.22 15.43 183.88 19.48 182.50 22.50 C 181.12 25.52 178.43 29.80 176.50 32.00 C 174.57 34.20 170.97 37.35 168.50 39.00 C 166.03 40.65 159.50 44.48 154.00 47.50 C 148.50 50.52 141.07 55.02 137.50 57.50 C 133.71 60.12 128.49 65.13 125.00 69.50 C 121.70 73.62 114.95 82.85 110.00 90.00 C 104.88 97.39 97.33 106.67 92.50 111.50 C 87.83 116.17 84.00 120.00 84.00 120.00 L 84.00 120.00 Z M 72.00 99.00 C 68.12 111.40 66.55 119.50 66.00 125.00 C 65.45 130.50 65.22 139.05 65.50 144.00 C 65.78 148.95 66.45 155.93 67.00 159.50 L 68.00 166.00 C 69.55 158.25 71.35 153.07 73.00 149.50 C 74.65 145.93 77.58 141.43 79.50 139.50 C 81.42 137.57 83.00 135.55 83.00 135.00 C 83.00 134.45 79.85 132.20 76.00 130.00 C 72.15 127.80 69.00 125.55 69.00 125.00 C 69.00 124.45 71.03 122.65 73.50 121.00 C 75.97 119.35 82.05 114.17 87.00 109.50 C 91.95 104.83 100.95 95.38 107.00 88.50 C 113.05 81.62 119.80 73.75 122.00 71.00 C 124.20 68.25 126.90 63.98 128.00 61.50 C 129.10 59.02 130.00 57.00 130.00 57.00 L 130.00 57.00 C 133.88 49.25 135.22 46.33 135.50 45.50 C 135.91 44.28 135.25 44.09 132.00 44.50 C 129.80 44.77 124.62 46.35 120.50 48.00 C 116.38 49.65 109.62 53.25 105.50 56.00 C 101.38 58.75 94.40 64.83 90.00 69.50 C 83.45 76.46 81.10 79.90 77.00 88.50 C 74.25 94.28 72.00 99.00 72.00 99.00 L 72.00 99.00 Z M 102.00 366.00 C 94.25 372.98 92.00 375.45 92.00 376.00 C 92.00 376.55 96.72 377.90 102.50 379.00 C 108.28 380.10 117.05 381.68 122.00 382.50 C 126.95 383.32 140.00 384.23 151.00 384.50 C 166.64 384.89 172.42 384.67 177.50 383.50 C 181.07 382.68 185.80 381.10 188.00 380.00 C 190.40 378.80 195.80 377.60 201.50 377.00 C 208.41 376.27 212.23 375.32 215.50 373.50 C 217.97 372.12 221.12 369.65 222.50 368.00 C 223.88 366.35 226.12 362.75 227.50 360.00 C 228.88 357.25 232.03 352.75 234.50 350.00 C 236.97 347.25 240.35 343.20 242.00 341.00 C 243.65 338.80 246.12 334.98 247.50 332.50 L 250.00 328.00 C 244.57 319.48 241.20 315.43 239.00 313.50 C 236.80 311.57 233.65 309.32 232.00 308.50 C 230.35 307.68 229.00 307.00 229.00 307.00 L 229.00 307.00 C 222.80 303.90 218.53 302.32 215.50 301.50 C 212.47 300.68 205.95 300.00 201.00 300.00 C 196.05 300.00 189.97 300.23 187.50 300.50 C 183.33 300.96 182.89 301.29 181.50 305.00 C 180.68 307.20 179.78 309.68 179.50 310.50 C 179.09 311.72 180.11 312.00 185.00 312.00 L 191.00 312.00 C 180.93 314.32 175.07 315.90 171.50 317.00 C 167.93 318.10 161.40 320.80 157.00 323.00 C 152.60 325.20 144.95 329.70 140.00 333.00 C 135.05 336.30 126.72 342.60 121.50 347.00 C 116.28 351.40 109.75 357.48 107.00 360.50 C 104.25 363.52 102.00 366.00 102.00 366.00 L 102.00 366.00 Z M 15.00 378.00 C 18.90 385.01 21.55 387.88 23.50 389.00 C 26.44 390.68 28.83 391.00 38.50 391.00 C 46.67 391.00 52.32 390.42 58.00 389.00 C 62.40 387.90 68.70 386.10 72.00 385.00 C 75.30 383.90 80.25 381.88 83.00 380.50 C 86.79 378.61 89.33 376.18 93.50 370.50 C 96.53 366.38 101.47 359.85 104.50 356.00 C 107.53 352.15 113.83 345.62 118.50 341.50 C 123.17 337.38 127.00 334.00 127.00 334.00 L 127.00 334.00 C 134.75 328.57 137.22 326.55 137.50 326.00 C 137.79 325.42 135.69 324.79 132.50 324.50 C 129.47 324.23 118.45 324.00 108.00 324.00 C 95.78 324.00 85.79 324.54 80.00 325.50 C 75.05 326.32 67.40 328.12 63.00 329.50 C 58.60 330.88 51.40 333.80 47.00 336.00 C 42.60 338.20 36.98 341.57 34.50 343.50 C 32.02 345.43 29.77 346.77 29.50 346.50 C 29.23 346.23 31.70 343.52 35.00 340.50 C 38.30 337.48 43.70 333.43 47.00 331.50 C 50.30 329.57 53.00 328.00 53.00 328.00 L 53.00 328.00 C 60.75 324.90 63.23 323.77 63.50 323.50 C 63.77 323.23 63.55 321.88 63.00 320.50 C 62.45 319.12 60.42 317.10 58.50 316.00 C 56.58 314.90 55.00 314.00 55.00 314.00 L 55.00 314.00 C 48.02 310.90 42.85 309.55 39.00 309.00 C 33.51 308.22 30.60 308.32 25.50 309.50 C 21.92 310.32 17.20 311.90 15.00 313.00 C 12.80 314.10 10.32 316.12 9.50 317.50 C 8.68 318.88 7.55 324.05 7.00 329.00 C 6.33 335.00 6.33 341.17 7.00 347.50 C 7.55 352.73 9.12 360.82 10.50 365.50 C 11.88 370.18 13.45 374.90 14.00 376.00 C 14.55 377.10 15.00 378.00 15.00 378.00 L 15.00 378.00 Z" fill-rule="evenodd"/>
	<path fill="#FCBD4B" d="M 200.00 22.00 C 196.90 18.90 195.78 18.23 195.50 18.50 C 195.22 18.77 195.68 21.02 196.50 23.50 C 197.35 26.05 198.22 33.43 198.50 40.50 C 198.78 47.38 198.55 55.48 198.00 58.50 C 197.45 61.52 195.65 66.70 194.00 70.00 C 192.17 73.67 188.86 77.94 185.50 81.00 C 182.17 84.03 177.83 86.79 174.50 88.00 C 169.06 89.98 168.96 90.09 165.00 98.50 C 161.99 104.89 159.39 108.61 154.50 113.50 C 150.50 117.50 145.88 120.96 142.50 122.50 C 139.47 123.88 133.62 125.67 129.50 126.50 C 123.52 127.70 120.07 127.80 112.50 127.00 C 107.28 126.45 98.72 124.65 93.50 123.00 C 88.28 121.35 84.00 120.00 84.00 120.00 L 84.00 120.00 L 84.00 120.00 C 84.00 120.00 87.83 116.17 92.50 111.50 C 97.33 106.67 104.88 97.39 110.00 90.00 C 114.95 82.85 121.70 73.62 125.00 69.50 C 128.49 65.13 133.71 60.12 137.50 57.50 C 141.07 55.02 148.50 50.52 154.00 47.50 C 159.50 44.48 166.03 40.65 168.50 39.00 C 170.97 37.35 174.57 34.20 176.50 32.00 C 178.43 29.80 181.12 25.52 182.50 22.50 C 183.88 19.48 185.22 15.43 185.50 13.50 C 185.78 11.57 186.45 10.00 187.00 10.00 C 187.55 10.00 190.70 12.70 200.00 22.00 Z" fill-rule="evenodd"/>
	<path fill="#FEB61B" d="M 200.00 22.00 L 200.00 22.00 C 200.00 22.00 201.57 24.25 203.50 27.00 C 205.43 29.75 208.12 34.25 209.50 37.00 C 210.88 39.75 212.68 44.25 213.50 47.00 C 214.47 50.24 215.00 56.22 215.00 64.00 C 215.00 70.60 214.55 78.03 214.00 80.50 C 213.45 82.97 212.10 87.25 211.00 90.00 C 209.90 92.75 209.22 95.22 209.50 95.50 C 209.78 95.78 212.70 94.65 216.00 93.00 C 219.30 91.35 224.03 87.97 226.50 85.50 C 228.97 83.03 231.45 81.00 232.00 81.00 C 232.55 81.00 234.12 83.47 235.50 86.50 C 236.88 89.53 238.68 94.70 239.50 98.00 C 240.32 101.30 241.45 108.05 242.00 113.00 C 242.67 119.00 242.67 125.83 242.00 133.50 C 241.45 139.82 239.88 149.28 238.50 154.50 C 237.12 159.72 234.43 167.60 232.50 172.00 C 230.57 176.40 226.07 184.50 222.50 190.00 C 217.79 197.25 213.80 201.93 208.00 207.00 C 203.60 210.85 199.10 214.45 196.00 216.00 C 202.20 209.03 204.68 207.00 205.50 207.00 C 206.32 207.00 208.35 204.97 210.00 202.50 C 211.65 200.03 214.57 194.62 216.50 190.50 C 218.43 186.38 219.78 182.78 219.50 182.50 C 219.22 182.22 216.53 183.35 213.50 185.00 C 210.47 186.65 208.00 187.78 208.00 187.50 C 208.00 187.22 210.03 180.93 212.50 173.50 C 214.97 166.07 216.78 159.78 216.50 159.50 C 216.22 159.22 213.53 161.25 210.50 164.00 C 207.47 166.75 204.55 169.00 204.00 169.00 C 203.45 169.00 202.78 166.07 202.50 162.50 C 202.22 158.93 201.10 153.97 200.00 151.50 C 198.90 149.03 195.97 145.20 193.50 143.00 C 191.03 140.80 186.75 137.88 184.00 136.50 C 181.25 135.12 177.43 133.78 175.50 133.50 C 173.57 133.22 172.00 133.00 172.00 133.00 L 172.00 133.00 L 172.00 133.00 C 172.00 133.00 174.47 130.30 177.50 127.00 C 180.53 123.70 184.35 118.53 186.00 115.50 C 187.65 112.47 189.90 107.08 191.00 103.50 C 192.10 99.92 193.22 95.88 193.50 94.50 C 193.83 92.83 193.67 92.33 193.00 93.00 C 192.45 93.55 192.00 94.90 192.00 96.00 C 192.00 97.10 189.97 102.05 187.50 107.00 C 183.83 114.33 181.61 117.30 175.50 123.00 C 170.72 127.46 165.64 131.09 161.50 133.00 C 157.93 134.65 151.18 136.90 146.50 138.00 C 139.53 139.64 135.76 139.91 125.50 139.50 C 117.36 139.17 110.56 138.30 106.00 137.00 C 102.15 135.90 94.72 132.97 89.50 130.50 C 83.72 127.76 80.00 125.41 80.00 124.50 C 80.00 123.67 80.90 122.33 84.00 120.00 L 84.00 120.00 C 84.00 120.00 88.28 121.35 93.50 123.00 C 98.72 124.65 107.28 126.45 112.50 127.00 C 120.07 127.80 123.52 127.70 129.50 126.50 C 133.62 125.67 139.47 123.88 142.50 122.50 C 145.88 120.96 150.50 117.50 154.50 113.50 C 159.39 108.61 161.99 104.89 165.00 98.50 C 168.96 90.09 169.06 89.98 174.50 88.00 C 177.83 86.79 182.17 84.03 185.50 81.00 C 188.86 77.94 192.17 73.67 194.00 70.00 C 195.65 66.70 197.45 61.52 198.00 58.50 C 198.55 55.48 198.78 47.38 198.50 40.50 C 198.22 33.43 197.35 26.05 196.50 23.50 C 195.68 21.02 195.22 18.77 195.50 18.50 C 195.78 18.23 196.90 18.90 200.00 22.00 Z M 221.00 114.00 C 221.00 117.30 220.78 122.03 220.50 124.50 C 220.22 126.97 219.55 129.00 219.00 129.00 C 218.45 129.00 216.43 127.88 214.50 126.50 C 212.57 125.12 210.78 124.22 210.50 124.50 C 210.22 124.78 211.12 127.70 212.50 131.00 C 213.88 134.30 215.68 139.93 216.50 143.50 C 217.32 147.07 218.00 151.57 218.00 153.50 C 218.00 155.43 218.45 157.00 219.00 157.00 C 219.55 157.00 221.35 154.53 223.00 151.50 C 224.65 148.47 226.45 144.43 227.00 142.50 C 227.55 140.57 228.00 135.40 228.00 131.00 C 228.00 125.00 227.38 121.25 225.50 116.00 C 224.12 112.15 222.55 108.78 222.00 108.50 C 221.39 108.19 221.00 110.33 221.00 114.00 Z" fill-rule="evenodd"/>
	<path fill="#FCBE4C" d="M 130.00 57.00 C 126.80 56.20 122.00 58.00 116.00 61.00 C 110.50 63.75 102.40 68.92 98.00 72.50 C 93.60 76.08 87.53 82.15 84.50 86.00 C 81.47 89.85 77.42 94.35 75.50 96.00 C 73.58 97.65 72.00 99.00 72.00 99.00 L 72.00 99.00 L 72.00 99.00 C 72.00 99.00 74.25 94.28 77.00 88.50 C 81.10 79.90 83.45 76.46 90.00 69.50 C 94.40 64.83 101.38 58.75 105.50 56.00 C 109.62 53.25 116.38 49.65 120.50 48.00 C 124.62 46.35 129.80 44.77 132.00 44.50 C 135.25 44.09 135.91 44.28 135.50 45.50 C 135.22 46.33 133.88 49.25 130.00 57.00 Z" fill-rule="evenodd"/>
	<path fill="#FEB61B" d="M 130.00 57.00 L 130.00 57.00 C 130.00 57.00 129.10 59.02 128.00 61.50 C 126.90 63.98 124.20 68.25 122.00 71.00 C 119.80 73.75 113.05 81.62 107.00 88.50 C 100.95 95.38 91.95 104.83 87.00 109.50 C 82.05 114.17 75.97 119.35 73.50 121.00 C 71.03 122.65 69.00 124.45 69.00 125.00 C 69.00 125.55 72.15 127.80 76.00 130.00 C 79.85 132.20 83.00 134.45 83.00 135.00 C 83.00 135.55 81.42 137.57 79.50 139.50 C 77.58 141.43 74.65 145.93 73.00 149.50 C 71.35 153.07 69.55 158.25 68.00 166.00 L 67.00 159.50 C 66.45 155.93 65.78 148.95 65.50 144.00 C 65.22 139.05 65.45 130.50 66.00 125.00 C 66.55 119.50 68.12 111.40 72.00 99.00 L 72.00 99.00 C 72.00 99.00 73.58 97.65 75.50 96.00 C 77.42 94.35 81.47 89.85 84.50 86.00 C 87.53 82.15 93.60 76.08 98.00 72.50 C 102.40 68.92 110.50 63.75 116.00 61.00 C 122.00 58.00 126.80 56.20 130.00 57.00 Z" fill-rule="evenodd"/>
	<path fill="#FDBD4B" d="M 221.00 114.00 C 221.00 110.33 221.39 108.19 222.00 108.50 C 222.55 108.78 224.12 112.15 225.50 116.00 C 227.38 121.25 228.00 125.00 228.00 131.00 C 228.00 135.40 227.55 140.57 227.00 142.50 C 226.45 144.43 224.65 148.47 223.00 151.50 C 221.35 154.53 219.55 157.00 219.00 157.00 C 218.45 157.00 218.00 155.43 218.00 153.50 C 218.00 151.57 217.32 147.07 216.50 143.50 C 215.68 139.93 213.88 134.30 212.50 131.00 C 211.12 127.70 210.22 124.78 210.50 124.50 C 210.78 124.22 212.57 125.12 214.50 126.50 C 216.43 127.88 218.45 129.00 219.00 129.00 C 219.55 129.00 220.22 126.97 220.50 124.50 C 220.78 122.03 221.00 117.30 221.00 114.00 Z" fill-rule="evenodd"/>
	<path fill="#D4E4F1" d="M 172.00 133.00 C 182.07 138.43 186.80 141.80 189.00 144.00 C 191.20 146.20 193.68 149.35 194.50 151.00 C 195.32 152.65 196.22 157.15 196.50 161.00 C 196.78 164.85 196.55 170.70 196.00 174.00 C 195.45 177.30 194.78 180.68 194.50 181.50 C 194.14 182.59 195.23 182.32 198.50 180.50 C 200.97 179.12 203.22 178.22 203.50 178.50 C 203.78 178.78 202.65 183.05 201.00 188.00 C 199.35 192.95 198.22 197.22 198.50 197.50 C 198.78 197.78 201.25 197.10 204.00 196.00 C 206.75 194.90 209.22 194.22 209.50 194.50 C 209.78 194.78 208.88 197.25 207.50 200.00 C 206.12 202.75 202.97 207.47 200.50 210.50 C 198.03 213.53 196.00 216.00 196.00 216.00 L 196.00 216.00 L 196.00 216.00 C 196.00 216.00 195.78 216.22 195.50 216.50 C 195.22 216.78 191.40 219.03 179.00 226.00 C 168.15 229.88 161.40 231.68 157.00 232.50 C 152.60 233.32 146.30 234.00 143.00 234.00 C 139.70 234.00 137.00 234.00 137.00 234.00 L 137.00 234.00 L 137.00 234.00 C 137.00 234.00 132.95 233.55 128.00 233.00 C 122.63 232.40 115.77 230.79 111.00 229.00 C 106.60 227.35 99.85 223.97 96.00 221.50 C 92.15 219.03 87.42 215.20 85.50 213.00 C 83.58 210.80 80.65 206.07 79.00 202.50 C 77.35 198.93 75.10 192.62 74.00 188.50 C 72.84 184.17 72.00 177.83 72.00 173.50 C 72.00 168.67 72.71 163.87 76.00 154.00 C 76.78 153.22 77.90 151.20 79.00 149.00 C 80.93 145.13 81.05 145.07 82.50 147.00 C 83.33 148.10 86.03 150.12 88.50 151.50 C 90.97 152.88 93.00 154.00 93.00 154.00 L 93.00 154.00 C 98.42 155.55 101.80 156.90 104.00 158.00 C 106.20 159.10 109.80 161.57 112.00 163.50 C 114.20 165.43 117.35 169.03 119.00 171.50 C 120.65 173.97 122.22 175.78 122.50 175.50 C 122.78 175.22 122.33 172.75 121.50 170.00 C 120.60 167.01 118.60 163.60 116.50 161.50 C 114.58 159.57 113.00 158.00 113.00 158.00 L 113.00 158.00 C 126.95 156.45 133.70 155.32 137.00 154.50 C 140.30 153.68 145.93 151.65 149.50 150.00 C 153.83 148.00 157.50 145.33 160.50 142.00 C 162.97 139.25 165.00 137.00 165.00 137.00 L 165.00 137.00 L 165.00 137.00 C 165.00 137.00 166.35 136.10 168.00 135.00 C 169.65 133.90 171.22 133.00 172.00 133.00 Z M 153.00 154.00 C 150.25 155.10 146.43 157.57 144.50 159.50 C 142.57 161.43 139.88 165.47 138.50 168.50 C 137.12 171.53 136.22 174.45 136.50 175.00 C 136.78 175.55 138.35 173.97 140.00 171.50 C 141.65 169.03 144.57 165.65 146.50 164.00 C 148.43 162.35 152.70 159.65 156.00 158.00 C 159.30 156.35 163.57 154.78 165.50 154.50 C 167.43 154.22 168.78 153.55 168.50 153.00 C 168.22 152.45 165.75 152.00 163.00 152.00 C 160.25 152.00 155.75 152.90 153.00 154.00 Z M 93.00 165.50 C 91.35 166.32 89.33 167.90 88.50 169.00 C 87.03 170.96 87.06 170.97 90.50 169.50 C 92.42 168.68 94.45 168.00 95.00 168.00 C 95.55 168.00 95.33 169.12 94.50 170.50 C 93.50 172.17 93.17 174.50 93.50 177.50 C 93.78 179.97 94.00 183.12 94.00 184.50 C 94.00 186.72 94.50 187.06 98.50 187.50 C 100.97 187.78 104.35 188.22 106.00 188.50 C 107.67 188.78 109.00 188.56 109.00 188.00 C 109.00 187.45 110.12 185.88 111.50 184.50 C 112.88 183.12 114.22 180.65 114.50 179.00 C 114.78 177.35 115.22 176.00 115.50 176.00 C 115.78 176.00 116.90 176.90 118.00 178.00 C 119.10 179.10 120.00 179.55 120.00 179.00 C 120.00 178.45 119.33 176.65 118.50 175.00 C 117.67 173.35 115.42 170.65 113.50 169.00 C 111.58 167.35 108.88 165.55 107.50 165.00 C 106.12 164.45 102.97 164.00 100.50 164.00 C 98.03 164.00 94.65 164.68 93.00 165.50 Z M 152.00 166.00 C 149.80 167.10 146.20 170.03 144.00 172.50 C 141.80 174.97 140.00 177.45 140.00 178.00 C 140.00 178.55 141.57 177.88 143.50 176.50 L 147.00 174.00 C 147.78 180.20 148.90 183.12 150.00 184.50 C 151.10 185.88 152.68 187.00 153.50 187.00 C 154.39 187.00 154.80 187.61 154.50 188.50 C 154.12 189.64 154.60 189.88 156.50 189.50 C 157.88 189.22 161.47 188.55 164.50 188.00 C 167.53 187.45 170.22 186.78 170.50 186.50 C 170.78 186.22 170.10 185.78 169.00 185.50 C 167.77 185.19 167.19 184.42 167.50 183.50 C 167.78 182.68 168.22 180.20 168.50 178.00 C 168.81 175.51 168.43 172.87 167.50 171.00 C 166.17 168.33 166.17 168.00 167.50 168.00 C 168.32 168.00 170.57 168.68 172.50 169.50 L 176.00 171.00 C 172.90 167.12 170.43 165.55 168.50 165.00 C 166.57 164.45 162.97 164.00 160.50 164.00 C 158.00 164.00 154.22 164.89 152.00 166.00 Z M 168.50 202.00 C 169.32 202.55 170.22 203.22 170.50 203.50 C 170.78 203.78 169.65 205.35 168.00 207.00 C 166.35 208.65 162.30 211.35 159.00 213.00 C 155.70 214.65 149.62 216.68 145.50 217.50 C 140.57 218.49 134.91 218.83 129.00 218.50 C 123.17 218.18 120.18 218.35 120.50 219.00 C 120.78 219.55 124.83 220.45 129.50 221.00 C 135.17 221.67 140.33 221.67 145.00 221.00 C 148.85 220.45 154.47 219.10 157.50 218.00 C 160.53 216.90 165.70 213.97 169.00 211.50 C 172.30 209.03 175.22 207.22 175.50 207.50 C 175.78 207.78 176.45 208.68 177.00 209.50 C 177.82 210.73 178.09 210.55 178.50 208.50 C 178.78 207.12 178.55 204.88 178.00 203.50 C 177.12 201.30 176.40 201.00 172.00 201.00 C 168.33 201.00 167.40 201.27 168.50 202.00 Z" fill-rule="evenodd"/>
	<path fill="#111920" d="M 172.00 133.00 L 172.00 133.00 C 172.00 133.00 173.57 133.22 175.50 133.50 C 177.43 133.78 181.25 135.12 184.00 136.50 C 186.75 137.88 191.03 140.80 193.50 143.00 C 195.97 145.20 198.90 149.03 200.00 151.50 C 201.10 153.97 202.22 158.93 202.50 162.50 C 202.78 166.07 203.45 169.00 204.00 169.00 C 204.55 169.00 207.47 166.75 210.50 164.00 C 213.53 161.25 216.22 159.22 216.50 159.50 C 216.78 159.78 214.97 166.07 212.50 173.50 C 210.03 180.93 208.00 187.22 208.00 187.50 C 208.00 187.78 210.47 186.65 213.50 185.00 C 216.53 183.35 219.22 182.22 219.50 182.50 C 219.78 182.78 218.43 186.38 216.50 190.50 C 214.57 194.62 211.65 200.03 210.00 202.50 C 208.35 204.97 206.32 207.00 205.50 207.00 C 204.68 207.00 202.20 209.03 196.00 216.00 L 196.00 216.00 C 196.00 216.00 198.03 213.53 200.50 210.50 C 202.97 207.47 206.12 202.75 207.50 200.00 C 208.88 197.25 209.78 194.78 209.50 194.50 C 209.22 194.22 206.75 194.90 204.00 196.00 C 201.25 197.10 198.78 197.78 198.50 197.50 C 198.22 197.22 199.35 192.95 201.00 188.00 C 202.65 183.05 203.78 178.78 203.50 178.50 C 203.22 178.22 200.97 179.12 198.50 180.50 C 195.23 182.32 194.14 182.59 194.50 181.50 C 194.78 180.68 195.45 177.30 196.00 174.00 C 196.55 170.70 196.78 164.85 196.50 161.00 C 196.22 157.15 195.32 152.65 194.50 151.00 C 193.68 149.35 191.20 146.20 189.00 144.00 C 186.80 141.80 182.07 138.43 172.00 133.00 Z" fill-rule="evenodd"/>
	<path fill="#C8D4DF" d="M 165.00 137.00 L 165.00 137.00 C 165.00 137.00 162.97 139.25 160.50 142.00 C 157.50 145.33 153.83 148.00 149.50 150.00 C 145.93 151.65 140.30 153.68 137.00 154.50 C 133.70 155.32 126.95 156.45 113.00 158.00 C 104.75 153.42 103.08 153.08 98.50 153.50 C 95.47 153.78 93.00 154.00 93.00 154.00 L 93.00 154.00 L 93.00 154.00 C 93.00 154.00 90.97 152.88 88.50 151.50 C 86.03 150.12 83.33 148.10 82.50 147.00 C 81.05 145.07 80.93 145.13 79.00 149.00 C 77.90 151.20 76.78 153.22 76.00 154.00 L 76.00 154.00 C 76.00 154.00 76.45 152.88 77.00 151.50 C 77.55 150.12 79.58 146.30 81.50 143.00 C 84.56 137.75 85.31 137.06 87.50 137.50 C 88.88 137.78 93.83 139.35 98.50 141.00 C 103.17 142.65 110.15 144.45 114.00 145.00 C 117.85 145.55 125.95 145.78 132.00 145.50 C 138.84 145.19 145.46 144.24 149.50 143.00 C 153.07 141.90 158.03 140.10 165.00 137.00 Z" fill-rule="evenodd"/>
	<path fill="#111921" d="M 153.00 154.00 C 155.75 152.90 160.25 152.00 163.00 152.00 C 165.75 152.00 168.22 152.45 168.50 153.00 C 168.78 153.55 167.43 154.22 165.50 154.50 C 163.57 154.78 159.30 156.35 156.00 158.00 C 152.70 159.65 148.43 162.35 146.50 164.00 C 144.57 165.65 141.65 169.03 140.00 171.50 C 138.35 173.97 136.78 175.55 136.50 175.00 C 136.22 174.45 137.12 171.53 138.50 168.50 C 139.88 165.47 142.57 161.43 144.50 159.50 C 146.43 157.57 150.25 155.10 153.00 154.00 Z" fill-rule="evenodd"/>
	<path fill="#101820" d="M 113.00 158.00 L 113.00 158.00 C 113.00 158.00 114.58 159.57 116.50 161.50 C 118.60 163.60 120.60 167.01 121.50 170.00 C 122.33 172.75 122.78 175.22 122.50 175.50 C 122.22 175.78 120.65 173.97 119.00 171.50 C 117.35 169.03 114.20 165.43 112.00 163.50 C 109.80 161.57 106.20 159.10 104.00 158.00 C 101.80 156.90 98.42 155.55 93.00 154.00 L 93.00 154.00 C 93.00 154.00 95.47 153.78 98.50 153.50 C 103.08 153.08 104.75 153.42 113.00 158.00 Z" fill-rule="evenodd"/>
	<path fill="#111921" d="M 93.00 165.50 C 94.65 164.68 98.03 164.00 100.50 164.00 C 102.97 164.00 106.12 164.45 107.50 165.00 C 108.88 165.55 111.58 167.35 113.50 169.00 C 115.42 170.65 117.67 173.35 118.50 175.00 C 119.33 176.65 120.00 178.45 120.00 179.00 C 120.00 179.55 119.10 179.10 118.00 178.00 C 116.90 176.90 115.78 176.00 115.50 176.00 C 115.22 176.00 114.78 177.35 114.50 179.00 C 114.22 180.65 112.88 183.12 111.50 184.50 C 110.12 185.88 109.00 187.45 109.00 188.00 C 109.00 188.56 107.67 188.78 106.00 188.50 C 104.35 188.22 100.97 187.78 98.50 187.50 C 94.50 187.06 94.00 186.72 94.00 184.50 C 94.00 183.12 93.78 179.97 93.50 177.50 C 93.17 174.50 93.50 172.17 94.50 170.50 C 95.33 169.12 95.55 168.00 95.00 168.00 C 94.45 168.00 92.42 168.68 90.50 169.50 C 87.06 170.97 87.03 170.96 88.50 169.00 C 89.33 167.90 91.35 166.32 93.00 165.50 Z M 96.00 179.00 C 96.00 180.10 96.00 181.22 96.00 181.50 C 96.00 181.78 96.67 182.22 97.50 182.50 C 98.33 182.78 99.67 182.32 100.50 181.50 C 101.33 180.68 101.78 179.32 101.50 178.50 C 101.22 177.68 99.88 177.00 98.50 177.00 C 96.67 177.00 96.00 177.53 96.00 179.00 Z" fill-rule="evenodd"/>
	<path fill="#111922" d="M 152.00 166.00 C 154.22 164.89 158.00 164.00 160.50 164.00 C 162.97 164.00 166.57 164.45 168.50 165.00 C 170.43 165.55 172.90 167.12 176.00 171.00 L 172.50 169.50 C 170.57 168.68 168.32 168.00 167.50 168.00 C 166.17 168.00 166.17 168.33 167.50 171.00 C 168.43 172.87 168.81 175.51 168.50 178.00 C 168.22 180.20 167.78 182.68 167.50 183.50 C 167.19 184.42 167.77 185.19 169.00 185.50 C 170.10 185.78 170.78 186.22 170.50 186.50 C 170.22 186.78 167.53 187.45 164.50 188.00 C 161.47 188.55 157.88 189.22 156.50 189.50 C 154.60 189.88 154.12 189.64 154.50 188.50 C 154.80 187.61 154.39 187.00 153.50 187.00 C 152.68 187.00 151.10 185.88 150.00 184.50 C 148.90 183.12 147.78 180.20 147.00 174.00 L 143.50 176.50 C 141.57 177.88 140.00 178.55 140.00 178.00 C 140.00 177.45 141.80 174.97 144.00 172.50 C 146.20 170.03 149.80 167.10 152.00 166.00 Z M 152.00 177.50 C 151.45 177.78 151.22 178.90 151.50 180.00 C 151.78 181.10 152.90 182.22 154.00 182.50 C 155.23 182.81 156.19 182.42 156.50 181.50 C 156.78 180.68 156.10 179.32 155.00 178.50 C 153.90 177.68 152.55 177.22 152.00 177.50 Z" fill-rule="evenodd"/>
	<path fill="#FFFFFF" d="M 96.00 179.00 C 96.00 177.53 96.67 177.00 98.50 177.00 C 99.88 177.00 101.22 177.68 101.50 178.50 C 101.78 179.32 101.33 180.68 100.50 181.50 C 99.67 182.32 98.33 182.78 97.50 182.50 C 96.67 182.22 96.00 181.78 96.00 181.50 C 96.00 181.22 96.00 180.10 96.00 179.00 Z" fill-rule="evenodd"/>
	<path fill="#FFFFFF" d="M 152.00 177.50 C 152.55 177.22 153.90 177.68 155.00 178.50 C 156.10 179.32 156.78 180.68 156.50 181.50 C 156.19 182.42 155.23 182.81 154.00 182.50 C 152.90 182.22 151.78 181.10 151.50 180.00 C 151.22 178.90 151.45 177.78 152.00 177.50 Z" fill-rule="evenodd"/>
	<path fill="#161E26" d="M 168.50 202.00 C 167.40 201.27 168.33 201.00 172.00 201.00 C 176.40 201.00 177.12 201.30 178.00 203.50 C 178.55 204.88 178.78 207.12 178.50 208.50 C 178.09 210.55 177.82 210.73 177.00 209.50 C 176.45 208.68 175.78 207.78 175.50 207.50 C 175.22 207.22 172.30 209.03 169.00 211.50 C 165.70 213.97 160.53 216.90 157.50 218.00 C 154.47 219.10 148.85 220.45 145.00 221.00 C 140.33 221.67 135.17 221.67 129.50 221.00 C 124.83 220.45 120.78 219.55 120.50 219.00 C 120.18 218.35 123.17 218.18 129.00 218.50 C 134.91 218.83 140.57 218.49 145.50 217.50 C 149.62 216.68 155.70 214.65 159.00 213.00 C 162.30 211.35 166.35 208.65 168.00 207.00 C 169.65 205.35 170.78 203.78 170.50 203.50 C 170.22 203.22 169.32 202.55 168.50 202.00 Z" fill-rule="evenodd"/>
	<path fill="#EE8803" d="M 232.00 230.00 C 219.60 231.55 214.43 232.45 212.50 233.00 C 210.57 233.55 207.88 234.90 206.50 236.00 C 205.12 237.10 204.00 238.90 204.00 240.00 C 204.00 241.10 204.90 242.45 206.00 243.00 C 207.10 243.55 209.57 243.78 211.50 243.50 C 213.43 243.22 215.90 242.78 217.00 242.50 C 218.33 242.17 219.00 242.50 219.00 243.50 C 219.00 244.32 220.12 245.90 221.50 247.00 C 222.88 248.10 226.03 249.22 228.50 249.50 C 231.60 249.84 235.65 249.22 241.50 247.50 C 246.18 246.12 252.25 245.00 255.00 245.00 C 257.75 245.00 260.00 245.00 260.00 245.00 L 260.00 245.00 L 260.00 245.00 C 260.00 245.00 260.90 246.35 262.00 248.00 C 263.10 249.65 264.68 252.80 265.50 255.00 C 266.34 257.25 267.00 262.28 267.00 266.50 C 267.00 270.72 266.34 275.75 265.50 278.00 C 264.68 280.20 262.88 283.57 261.50 285.50 C 259.25 288.65 259.05 289.70 259.50 296.00 C 259.82 300.41 259.45 305.40 258.50 309.50 C 257.68 313.07 256.10 318.02 255.00 320.50 C 253.90 322.98 252.55 325.00 252.00 325.00 C 251.45 325.00 251.00 324.10 251.00 323.00 C 251.00 321.90 249.88 318.75 248.50 316.00 C 247.12 313.25 244.20 309.20 242.00 307.00 C 239.80 304.80 235.07 301.65 231.50 300.00 C 227.93 298.35 222.97 296.55 220.50 296.00 C 218.03 295.45 212.18 294.55 199.00 293.00 C 199.78 291.45 202.03 290.55 204.50 290.00 C 206.97 289.45 210.80 287.65 213.00 286.00 C 215.20 284.35 217.68 281.65 218.50 280.00 C 219.32 278.35 220.00 275.88 220.00 274.50 C 220.00 273.12 219.55 271.77 219.00 271.50 C 218.45 271.23 218.00 271.00 218.00 271.00 L 218.00 271.00 L 218.00 271.00 C 218.00 271.00 218.45 270.55 219.00 270.00 C 219.67 269.33 218.50 269.00 215.50 269.00 C 213.03 269.00 208.75 269.68 206.00 270.50 C 203.25 271.32 199.20 273.12 197.00 274.50 C 194.80 275.88 191.20 279.02 189.00 281.50 C 186.80 283.98 184.10 287.80 183.00 290.00 C 181.90 292.20 180.32 296.25 179.50 299.00 C 178.68 301.75 178.00 305.80 178.00 308.00 C 178.00 311.33 177.67 312.00 176.00 312.00 C 174.90 312.00 170.62 312.90 166.50 314.00 C 162.38 315.10 154.95 317.80 141.00 324.00 L 132.00 322.00 C 127.05 320.90 117.83 319.55 111.50 319.00 C 103.83 318.33 96.17 318.33 88.50 319.00 C 82.17 319.55 74.75 320.68 72.00 321.50 C 69.25 322.32 66.78 322.77 66.50 322.50 C 66.22 322.23 66.00 310.52 66.00 296.50 C 66.00 282.48 66.22 269.20 66.50 267.00 C 66.94 263.44 66.83 263.17 65.50 264.50 C 64.67 265.32 63.10 268.93 62.00 272.50 C 60.76 276.54 59.81 283.16 59.50 290.00 C 59.23 296.05 59.45 303.25 60.00 306.00 C 60.55 308.75 60.77 311.23 60.50 311.50 C 60.23 311.77 58.20 310.65 56.00 309.00 C 53.80 307.35 49.75 305.10 47.00 304.00 C 43.56 302.62 39.67 302.00 34.50 302.00 C 28.90 302.00 25.35 302.63 20.50 304.50 C 16.92 305.88 13.78 306.77 13.50 306.50 C 13.22 306.23 15.02 301.73 17.50 296.50 C 21.88 287.25 21.97 286.85 21.00 281.50 C 20.45 278.48 20.23 273.98 20.50 271.50 C 20.77 269.02 21.90 264.07 23.00 260.50 C 24.10 256.93 25.90 253.10 29.00 250.00 C 28.13 260.40 28.40 262.53 29.50 264.00 C 30.32 265.10 32.35 266.68 34.00 267.50 C 35.65 268.32 39.48 269.00 42.50 269.00 C 45.67 269.00 50.12 268.15 53.00 267.00 C 55.75 265.90 60.48 263.43 63.50 261.50 C 66.53 259.57 69.22 257.55 69.50 257.00 C 69.78 256.45 70.45 256.23 71.00 256.50 C 71.67 256.83 71.67 257.67 71.00 259.00 C 70.45 260.10 70.00 262.12 70.00 263.50 C 70.00 264.88 69.33 266.68 68.50 267.50 C 67.39 268.61 67.26 269.52 68.00 271.00 C 68.55 272.10 69.67 274.12 70.50 275.50 C 71.33 276.88 72.90 278.23 74.00 278.50 C 75.47 278.87 76.79 277.95 79.00 275.00 C 80.65 272.80 83.58 268.30 85.50 265.00 C 87.42 261.70 92.60 255.40 97.00 251.00 C 102.81 245.19 106.78 242.18 111.50 240.00 C 115.08 238.35 118.67 236.55 119.50 236.00 C 120.33 235.45 121.00 235.00 121.00 235.00 L 121.00 235.00 L 121.00 235.00 C 121.00 235.00 124.60 235.00 129.00 235.00 C 133.40 235.00 137.00 234.78 137.00 234.00 L 137.00 234.00 C 137.00 234.00 139.70 234.00 143.00 234.00 C 146.30 234.00 152.60 233.32 157.00 232.50 C 161.40 231.68 168.15 229.88 179.00 226.00 L 179.00 226.00 C 179.00 226.00 180.12 226.00 181.50 226.00 C 182.88 226.00 186.70 225.10 190.00 224.00 C 193.30 222.90 197.80 221.10 200.00 220.00 C 202.20 218.90 204.90 218.00 206.00 218.00 C 207.10 218.00 213.40 220.70 232.00 230.00 Z M 107.00 252.00 C 105.45 258.98 103.88 262.12 102.50 263.50 C 100.01 265.99 100.00 266.10 100.00 284.50 C 100.00 301.50 100.16 303.20 102.00 305.50 C 103.10 306.88 105.80 308.45 108.00 309.00 C 110.20 309.55 114.70 309.77 118.00 309.50 L 124.00 309.00 L 123.00 316.00 L 143.00 316.00 C 141.45 311.35 141.00 309.77 141.00 309.50 C 141.00 309.23 144.82 309.00 149.50 309.00 C 156.33 309.00 158.59 308.61 161.00 307.00 C 162.65 305.90 164.90 302.98 166.00 300.50 C 167.61 296.89 168.00 293.83 168.00 285.00 C 168.00 276.00 167.64 273.27 166.00 270.00 C 164.90 267.80 163.55 265.77 163.00 265.50 C 162.45 265.23 161.55 263.20 161.00 261.00 C 160.45 258.80 159.78 255.88 159.50 254.50 L 159.00 252.00 L 107.00 252.00 Z M 224.00 287.00 C 232.53 290.88 236.80 292.90 239.00 294.00 C 241.20 295.10 244.35 297.12 246.00 298.50 C 247.65 299.88 250.35 303.02 252.00 305.50 C 253.65 307.98 255.22 309.55 255.50 309.00 C 255.78 308.45 255.55 306.20 255.00 304.00 C 254.45 301.80 253.32 298.88 252.50 297.50 C 251.68 296.12 249.20 294.10 247.00 293.00 C 244.80 291.90 238.72 290.10 233.50 289.00 L 224.00 287.00 Z M 33.50 296.50 C 31.02 297.32 28.10 298.45 27.00 299.00 C 25.53 299.74 27.50 300.00 34.50 300.00 C 42.50 300.00 44.87 300.39 49.50 302.50 C 52.52 303.88 55.00 304.55 55.00 304.00 C 55.00 303.45 53.42 301.43 51.50 299.50 C 48.69 296.69 47.02 295.90 43.00 295.50 C 39.92 295.19 36.27 295.58 33.50 296.50 Z" fill-rule="evenodd"/>
	<path fill="#F4993D" d="M 121.00 235.00 L 121.00 235.00 C 121.00 235.00 120.33 235.45 119.50 236.00 C 118.67 236.55 115.08 238.35 111.50 240.00 C 106.78 242.18 102.81 245.19 97.00 251.00 C 92.60 255.40 87.42 261.70 85.50 265.00 C 83.58 268.30 80.65 272.80 79.00 275.00 C 76.79 277.95 75.47 278.87 74.00 278.50 C 72.90 278.23 71.33 276.88 70.50 275.50 C 69.67 274.12 68.55 272.10 68.00 271.00 C 67.26 269.52 67.39 268.61 68.50 267.50 C 69.33 266.68 70.00 264.88 70.00 263.50 C 70.00 262.12 70.45 260.10 71.00 259.00 C 71.67 257.67 71.67 256.83 71.00 256.50 C 70.45 256.23 69.78 256.45 69.50 257.00 C 69.22 257.55 66.53 259.57 63.50 261.50 C 60.48 263.43 55.75 265.90 53.00 267.00 C 50.12 268.15 45.67 269.00 42.50 269.00 C 39.48 269.00 35.65 268.32 34.00 267.50 C 32.35 266.68 30.32 265.10 29.50 264.00 C 28.40 262.53 28.13 260.40 29.00 250.00 L 29.00 250.00 C 29.00 250.00 30.12 248.43 31.50 246.50 C 32.88 244.57 36.02 241.65 38.50 240.00 C 40.98 238.35 45.92 236.10 49.50 235.00 C 53.08 233.90 57.58 232.78 59.50 232.50 C 61.42 232.22 67.72 229.97 84.00 223.00 L 89.00 226.00 C 91.75 227.65 97.60 230.12 102.00 231.50 C 106.40 232.88 112.47 234.22 121.00 235.00 Z" fill-rule="evenodd"/>
	<path fill="#F4993E" d="M 232.00 230.00 L 232.00 230.00 C 232.00 230.00 234.03 230.45 236.50 231.00 C 238.97 231.55 243.70 233.35 247.00 235.00 C 250.30 236.65 254.57 239.57 260.00 245.00 L 260.00 245.00 C 260.00 245.00 257.75 245.00 255.00 245.00 C 252.25 245.00 246.18 246.12 241.50 247.50 C 235.65 249.22 231.60 249.84 228.50 249.50 C 226.03 249.22 222.88 248.10 221.50 247.00 C 220.12 245.90 219.00 244.32 219.00 243.50 C 219.00 242.50 218.33 242.17 217.00 242.50 C 215.90 242.78 213.43 243.22 211.50 243.50 C 209.57 243.78 207.10 243.55 206.00 243.00 C 204.90 242.45 204.00 241.10 204.00 240.00 C 204.00 238.90 205.12 237.10 206.50 236.00 C 207.88 234.90 210.57 233.55 212.50 233.00 C 214.43 232.45 219.60 231.55 232.00 230.00 Z" fill-rule="evenodd"/>
	<path fill="#111920" d="M 107.00 252.00 L 159.00 252.00 L 159.50 254.50 C 159.78 255.88 160.45 258.80 161.00 261.00 C 161.55 263.20 162.45 265.23 163.00 265.50 C 163.55 265.77 164.90 267.80 166.00 270.00 C 167.64 273.27 168.00 276.00 168.00 285.00 C 168.00 293.83 167.61 296.89 166.00 300.50 C 164.90 302.98 162.65 305.90 161.00 307.00 C 158.59 308.61 156.33 309.00 149.50 309.00 C 144.82 309.00 141.00 309.23 141.00 309.50 C 141.00 309.77 141.45 311.35 143.00 316.00 L 123.00 316.00 L 124.00 309.00 L 118.00 309.50 C 114.70 309.77 110.20 309.55 108.00 309.00 C 105.80 308.45 103.10 306.88 102.00 305.50 C 100.16 303.20 100.00 301.50 100.00 284.50 C 100.00 266.10 100.01 265.99 102.50 263.50 C 103.88 262.12 105.45 258.98 107.00 252.00 Z M 109.00 256.50 C 109.00 256.77 108.55 258.35 108.00 260.00 L 107.00 263.00 L 129.00 262.00 L 128.00 313.00 C 137.67 313.00 137.93 312.87 137.00 311.00 C 136.42 309.84 136.00 299.17 136.00 285.50 L 136.00 262.00 C 157.62 262.98 157.98 262.93 157.50 261.00 C 157.22 259.90 157.00 258.32 157.00 257.50 C 157.00 256.21 153.67 256.00 133.00 256.00 C 119.80 256.00 109.00 256.23 109.00 256.50 Z M 141.00 268.00 C 141.00 295.12 140.78 303.68 140.50 304.50 C 140.08 305.75 141.39 306.00 148.50 306.00 C 156.10 306.00 157.32 305.74 160.00 303.50 C 161.65 302.12 163.45 299.43 164.00 297.50 C 164.55 295.57 165.00 289.73 165.00 284.50 C 165.00 278.06 164.52 274.04 163.50 272.00 C 162.68 270.35 160.88 268.32 159.50 267.50 C 158.12 266.68 154.97 265.77 152.50 265.50 C 150.03 265.23 148.00 265.00 148.00 265.00 L 148.00 265.00 C 141.80 265.00 139.78 265.45 139.50 266.00 C 139.22 266.55 139.45 267.23 140.00 267.50 C 140.55 267.77 141.00 268.00 141.00 268.00 L 141.00 268.00 Z M 103.00 266.00 L 103.00 303.00 C 106.88 305.32 109.35 306.23 111.00 306.50 C 112.65 306.77 116.70 306.77 120.00 306.50 L 126.00 306.00 L 126.00 266.00 L 117.00 266.00 C 117.00 296.06 116.73 299.18 115.50 300.00 C 114.50 300.67 113.50 300.67 112.50 300.00 C 111.27 299.18 111.00 296.06 111.00 282.50 L 111.00 266.00 L 103.00 266.00 Z" fill-rule="evenodd"/>
	<path fill="#FEFEFE" d="M 109.00 256.50 C 109.00 256.23 119.80 256.00 133.00 256.00 C 153.67 256.00 157.00 256.21 157.00 257.50 C 157.00 258.32 157.22 259.90 157.50 261.00 C 157.98 262.93 157.62 262.98 136.00 262.00 L 136.00 285.50 C 136.00 299.17 136.42 309.84 137.00 311.00 C 137.93 312.87 137.67 313.00 128.00 313.00 L 129.00 262.00 L 107.00 263.00 L 108.00 260.00 C 108.55 258.35 109.00 256.77 109.00 256.50 Z" fill-rule="evenodd"/>
	<path fill="#A9A49C" d="M 148.00 265.00 C 141.80 265.77 140.22 266.45 140.50 267.00 C 140.78 267.55 141.00 268.00 141.00 268.00 L 141.00 268.00 L 141.00 268.00 C 141.00 268.00 140.55 267.77 140.00 267.50 C 139.45 267.23 139.22 266.55 139.50 266.00 C 139.78 265.45 141.80 265.00 148.00 265.00 Z" fill-rule="evenodd"/>
	<path fill="#FEFEFE" d="M 148.00 265.00 L 148.00 265.00 C 148.00 265.00 150.03 265.23 152.50 265.50 C 154.97 265.77 158.12 266.68 159.50 267.50 C 160.88 268.32 162.68 270.35 163.50 272.00 C 164.52 274.04 165.00 278.06 165.00 284.50 C 165.00 289.73 164.55 295.57 164.00 297.50 C 163.45 299.43 161.65 302.12 160.00 303.50 C 157.32 305.74 156.10 306.00 148.50 306.00 C 141.39 306.00 140.08 305.75 140.50 304.50 C 140.78 303.68 141.00 295.12 141.00 268.00 L 141.00 268.00 C 141.00 268.00 140.78 267.55 140.50 267.00 C 140.22 266.45 141.80 265.77 148.00 265.00 Z M 148.00 271.00 C 148.00 292.70 148.00 299.23 148.00 299.50 C 148.00 299.77 149.57 299.77 151.50 299.50 C 153.83 299.17 155.50 298.17 156.50 296.50 C 157.52 294.80 158.00 291.28 158.00 285.50 C 158.00 279.72 157.52 276.20 156.50 274.50 C 155.50 272.83 153.83 271.83 151.50 271.50 L 148.00 271.00 Z" fill-rule="evenodd"/>
	<path fill="#FEFEFE" d="M 103.00 266.00 L 111.00 266.00 L 111.00 282.50 C 111.00 296.06 111.27 299.18 112.50 300.00 C 113.50 300.67 114.50 300.67 115.50 300.00 C 116.73 299.18 117.00 296.06 117.00 266.00 L 126.00 266.00 L 126.00 306.00 L 120.00 306.50 C 116.70 306.77 112.65 306.77 111.00 306.50 C 109.35 306.23 106.88 305.32 103.00 303.00 L 103.00 266.00 Z" fill-rule="evenodd"/>
	<path fill="#101820" d="M 148.00 271.00 L 151.50 271.50 C 153.83 271.83 155.50 272.83 156.50 274.50 C 157.52 276.20 158.00 279.72 158.00 285.50 C 158.00 291.28 157.52 294.80 156.50 296.50 C 155.50 298.17 153.83 299.17 151.50 299.50 C 149.57 299.77 148.00 299.77 148.00 299.50 C 148.00 299.23 148.00 292.70 148.00 271.00 Z" fill-rule="evenodd"/>
	<path fill="#F4993C" d="M 218.00 271.00 L 218.00 271.00 C 218.00 271.00 218.45 271.23 219.00 271.50 C 219.55 271.77 220.00 273.12 220.00 274.50 C 220.00 275.88 219.32 278.35 218.50 280.00 C 217.68 281.65 215.20 284.35 213.00 286.00 C 210.80 287.65 206.97 289.45 204.50 290.00 C 202.03 290.55 199.78 291.45 199.00 293.00 L 199.00 293.00 C 199.00 293.00 196.30 293.23 187.00 294.00 L 188.50 291.00 C 189.32 289.35 192.70 285.52 196.00 282.50 C 199.30 279.48 204.70 275.65 208.00 274.00 C 211.30 272.35 214.90 271.00 218.00 271.00 Z" fill-rule="evenodd"/>
	<path fill="#161B1F" d="M 224.00 287.00 L 233.50 289.00 C 238.72 290.10 244.80 291.90 247.00 293.00 C 249.20 294.10 251.68 296.12 252.50 297.50 C 253.32 298.88 254.45 301.80 255.00 304.00 C 255.55 306.20 255.78 308.45 255.50 309.00 C 255.22 309.55 253.65 307.98 252.00 305.50 C 250.35 303.02 247.65 299.88 246.00 298.50 C 244.35 297.12 241.20 295.10 239.00 294.00 C 236.80 292.90 232.53 290.88 224.00 287.00 Z" fill-rule="evenodd"/>
	<path fill="#11181F" d="M 33.50 296.50 C 36.27 295.58 39.92 295.19 43.00 295.50 C 47.02 295.90 48.69 296.69 51.50 299.50 C 53.42 301.43 55.00 303.45 55.00 304.00 C 55.00 304.55 52.52 303.88 49.50 302.50 C 44.87 300.39 42.50 300.00 34.50 300.00 C 27.50 300.00 25.53 299.74 27.00 299.00 C 28.10 298.45 31.02 297.32 33.50 296.50 Z" fill-rule="evenodd"/>
	<path fill="#D4E4F1" d="M 229.00 307.00 C 224.90 317.67 223.64 323.77 223.00 330.50 C 222.45 336.27 221.55 342.35 221.00 344.00 C 220.45 345.65 220.00 347.00 220.00 347.00 L 220.00 347.00 C 217.67 344.67 215.22 344.00 213.00 344.00 C 210.80 344.00 207.65 344.68 206.00 345.50 C 204.35 346.32 201.65 348.57 200.00 350.50 C 198.35 352.43 197.45 354.23 198.00 354.50 C 198.55 354.77 202.15 353.43 206.00 351.50 C 209.85 349.57 214.35 348.00 216.00 348.00 C 217.65 348.00 219.00 348.00 219.00 348.00 L 219.00 348.00 C 220.55 350.32 220.78 351.90 220.50 353.00 C 220.22 354.10 218.65 356.57 217.00 358.50 C 215.35 360.43 212.20 362.90 210.00 364.00 C 206.15 365.92 204.00 366.00 154.00 366.00 C 125.40 366.00 102.00 366.00 102.00 366.00 L 102.00 366.00 L 102.00 366.00 C 102.00 366.00 104.25 363.52 107.00 360.50 C 109.75 357.48 116.28 351.40 121.50 347.00 C 126.72 342.60 135.05 336.30 140.00 333.00 C 144.95 329.70 152.60 325.20 157.00 323.00 C 161.40 320.80 167.93 318.10 171.50 317.00 C 175.07 315.90 180.93 314.32 191.00 312.00 L 185.00 312.00 C 180.11 312.00 179.09 311.72 179.50 310.50 C 179.78 309.68 180.68 307.20 181.50 305.00 C 182.89 301.29 183.33 300.96 187.50 300.50 C 189.97 300.23 196.05 300.00 201.00 300.00 C 205.95 300.00 212.47 300.68 215.50 301.50 C 218.53 302.32 222.80 303.90 229.00 307.00 Z" fill-rule="evenodd"/>
	<path fill="#C9D5E0" d="M 229.00 307.00 L 229.00 307.00 C 229.00 307.00 230.35 307.68 232.00 308.50 C 233.65 309.32 236.80 311.57 239.00 313.50 C 241.20 315.43 244.57 319.48 250.00 328.00 L 247.50 332.50 C 246.12 334.98 243.65 338.80 242.00 341.00 C 240.35 343.20 236.97 347.25 234.50 350.00 C 232.03 352.75 228.88 357.25 227.50 360.00 C 226.12 362.75 223.88 366.35 222.50 368.00 C 221.12 369.65 217.97 372.12 215.50 373.50 C 212.23 375.32 208.41 376.27 201.50 377.00 C 195.80 377.60 190.40 378.80 188.00 380.00 C 185.80 381.10 181.07 382.68 177.50 383.50 C 172.42 384.67 166.64 384.89 151.00 384.50 C 140.00 384.23 126.95 383.32 122.00 382.50 C 117.05 381.68 108.28 380.10 102.50 379.00 C 96.72 377.90 92.00 376.55 92.00 376.00 C 92.00 375.45 94.25 372.98 102.00 366.00 L 102.00 366.00 C 102.00 366.00 125.40 366.00 154.00 366.00 C 204.00 366.00 206.15 365.92 210.00 364.00 C 212.20 362.90 215.35 360.43 217.00 358.50 C 218.65 356.57 220.22 354.10 220.50 353.00 C 220.78 351.90 220.55 350.32 219.00 348.00 C 219.78 348.00 220.00 347.77 220.00 347.50 C 220.00 347.23 220.00 347.00 220.00 347.00 L 220.00 347.00 L 220.00 347.00 C 220.00 347.00 220.45 345.65 221.00 344.00 C 221.55 342.35 222.45 336.27 223.00 330.50 C 223.64 323.77 224.90 317.67 229.00 307.00 Z" fill-rule="evenodd"/>
	<path fill="#D4E4F1" d="M 55.00 314.00 C 55.00 320.20 54.55 323.35 54.00 325.00 C 53.45 326.65 53.00 328.00 53.00 328.00 L 53.00 328.00 L 53.00 328.00 C 53.00 328.00 50.30 329.57 47.00 331.50 C 43.70 333.43 38.30 337.48 35.00 340.50 C 31.70 343.52 29.23 346.23 29.50 346.50 C 29.77 346.77 32.02 345.43 34.50 343.50 C 36.98 341.57 42.60 338.20 47.00 336.00 C 51.40 333.80 58.60 330.88 63.00 329.50 C 67.40 328.12 75.05 326.32 80.00 325.50 C 85.79 324.54 95.78 324.00 108.00 324.00 C 118.45 324.00 129.47 324.23 132.50 324.50 C 135.69 324.79 137.79 325.42 137.50 326.00 C 137.22 326.55 134.75 328.57 127.00 334.00 C 123.90 334.00 119.62 335.35 115.50 337.00 C 111.38 338.65 103.28 342.25 97.50 345.00 C 91.72 347.75 82.28 352.70 76.50 356.00 C 70.72 359.30 61.50 365.82 56.00 370.50 C 49.69 375.86 44.34 379.55 41.50 380.50 C 39.02 381.32 34.30 382.00 31.00 382.00 C 27.33 382.00 23.06 381.22 20.00 380.00 C 17.25 378.90 15.00 378.00 15.00 378.00 L 15.00 378.00 L 15.00 378.00 C 15.00 378.00 14.55 377.10 14.00 376.00 C 13.45 374.90 11.88 370.18 10.50 365.50 C 9.12 360.82 7.55 352.73 7.00 347.50 C 6.33 341.17 6.33 335.00 7.00 329.00 C 7.55 324.05 8.68 318.88 9.50 317.50 C 10.32 316.12 12.80 314.10 15.00 313.00 C 17.20 311.90 21.92 310.32 25.50 309.50 C 30.60 308.32 33.51 308.22 39.00 309.00 C 42.85 309.55 48.02 310.90 55.00 314.00 Z" fill-rule="evenodd"/>
	<path fill="#C9D5E0" d="M 55.00 314.00 L 55.00 314.00 C 55.00 314.00 56.58 314.90 58.50 316.00 C 60.42 317.10 62.45 319.12 63.00 320.50 C 63.55 321.88 63.77 323.23 63.50 323.50 C 63.23 323.77 60.75 324.90 53.00 328.00 L 53.00 328.00 C 53.00 328.00 53.45 326.65 54.00 325.00 C 54.55 323.35 55.00 320.20 55.00 314.00 Z" fill-rule="evenodd"/>
	<path fill="#C9D5E0" d="M 127.00 334.00 L 127.00 334.00 C 127.00 334.00 123.17 337.38 118.50 341.50 C 113.83 345.62 107.53 352.15 104.50 356.00 C 101.47 359.85 96.53 366.38 93.50 370.50 C 89.33 376.18 86.79 378.61 83.00 380.50 C 80.25 381.88 75.30 383.90 72.00 385.00 C 68.70 386.10 62.40 387.90 58.00 389.00 C 52.32 390.42 46.67 391.00 38.50 391.00 C 28.83 391.00 26.44 390.68 23.50 389.00 C 21.55 387.88 18.90 385.01 15.00 378.00 L 15.00 378.00 C 15.00 378.00 17.25 378.90 20.00 380.00 C 23.06 381.22 27.33 382.00 31.00 382.00 C 34.30 382.00 39.02 381.32 41.50 380.50 C 44.34 379.55 49.69 375.86 56.00 370.50 C 61.50 365.82 70.72 359.30 76.50 356.00 C 82.28 352.70 91.72 347.75 97.50 345.00 C 103.28 342.25 111.38 338.65 115.50 337.00 C 119.62 335.35 123.90 334.00 127.00 334.00 Z" fill-rule="evenodd"/>
	<path fill="#101820" d="M 220.00 347.00 L 220.00 347.00 C 220.00 347.00 220.00 347.23 220.00 347.50 C 220.00 347.77 219.78 348.00 219.00 348.00 L 219.00 348.00 C 219.00 348.00 217.65 348.00 216.00 348.00 C 214.35 348.00 209.85 349.57 206.00 351.50 C 202.15 353.43 198.55 354.77 198.00 354.50 C 197.45 354.23 198.35 352.43 200.00 350.50 C 201.65 348.57 204.35 346.32 206.00 345.50 C 207.65 344.68 210.80 344.00 213.00 344.00 C 215.22 344.00 217.67 344.67 220.00 347.00 Z" fill-rule="evenodd"/>
</svg>
