<?xml version="1.0" ?>
<svg xmlns="http://www.w3.org/2000/svg" version="1.1" width="305" height="280">
	<g fill="none" stroke-linecap="butt">
		<path stroke="#FCBE4B" d="M 98.00 137.00 L 98.00 137.00 C 98.00 137.00 101.15 133.62 105.00 129.50 C 108.85 125.38 116.05 116.60 121.00 110.00 C 125.95 103.40 132.47 94.40 135.50 90.00 C 139.57 84.08 142.95 80.57 148.50 76.50 C 152.62 73.47 160.50 68.53 166.00 65.50 C 171.50 62.48 178.03 58.65 180.50 57.00 C 182.97 55.35 187.03 51.75 189.50 49.00 C 192.04 46.18 194.87 41.61 196.00 38.50 C 197.10 35.48 198.00 31.88 198.00 30.50 C 198.00 29.12 198.45 27.77 199.00 27.50 C 199.55 27.23 201.57 28.80 207.00 35.00" vector-effect="non-scaling-stroke"/>
		<path stroke="#FEB61B" d="M 207.00 35.00 L 207.00 35.00 C 207.00 35.00 208.35 36.12 210.00 37.50 C 211.65 38.88 215.03 43.15 217.50 47.00 C 219.97 50.85 223.12 56.92 224.50 60.50 C 226.42 65.50 227.12 69.53 227.50 78.00 C 227.78 84.05 227.55 91.70 227.00 95.00 C 226.45 98.30 224.88 103.70 223.50 107.00 C 222.12 110.30 221.22 113.22 221.50 113.50 C 221.78 113.78 224.93 112.42 228.50 110.50 C 232.07 108.58 237.25 104.97 245.00 98.00 L 248.50 105.50 C 250.43 109.62 252.68 116.38 253.50 120.50 C 254.35 124.77 255.00 133.39 255.00 140.50 C 255.00 149.17 254.39 155.91 253.00 162.50 C 251.90 167.72 249.88 175.38 248.50 179.50 C 247.12 183.62 243.97 191.28 241.50 196.50 C 239.03 201.72 234.30 209.60 231.00 214.00 C 227.70 218.40 222.53 224.25 219.50 227.00 C 216.47 229.75 212.88 232.68 209.00 235.00" vector-effect="non-scaling-stroke"/>
		<path stroke="#FEB61B" d="M 186.00 151.00 L 186.00 151.00 C 186.00 151.00 185.78 150.78 185.50 150.50 C 185.22 150.22 187.03 147.75 189.50 145.00 C 191.97 142.25 195.57 137.53 197.50 134.50 C 199.43 131.47 202.12 125.17 203.50 120.50 C 204.88 115.83 205.78 111.78 205.50 111.50 C 205.22 111.22 204.32 113.47 203.50 116.50 C 202.68 119.53 200.20 124.70 198.00 128.00 C 195.80 131.30 191.53 136.70 188.50 140.00 C 184.71 144.13 180.82 147.09 176.00 149.50 C 172.15 151.43 165.62 153.90 161.50 155.00 C 155.76 156.53 150.83 157.00 140.50 157.00 C 129.03 157.00 125.72 156.62 118.50 154.50 C 113.83 153.12 106.17 149.97 101.50 147.50 C 96.83 145.03 92.78 142.55 92.50 142.00 C 92.22 141.45 93.35 140.10 98.00 137.00" vector-effect="non-scaling-stroke"/>
		<path stroke="#FEB61B" d="M 98.00 137.00 L 98.00 137.00 C 98.00 137.00 99.12 137.68 100.50 138.50 C 101.88 139.32 107.28 141.12 112.50 142.50 C 119.43 144.32 124.57 145.00 131.50 145.00 C 137.06 145.00 143.08 144.38 146.00 143.50 C 148.75 142.68 153.25 140.88 156.00 139.50 C 158.75 138.12 163.70 134.30 167.00 131.00 C 171.37 126.63 174.09 122.69 177.00 116.50 C 180.97 108.07 181.05 107.98 187.00 105.50 C 190.30 104.12 195.25 100.97 198.00 98.50 C 201.52 95.33 204.03 91.79 206.50 86.50 C 208.89 81.38 210.32 76.46 211.00 71.00 C 211.67 65.67 211.67 59.83 211.00 53.50 C 210.45 48.27 209.32 41.98 207.00 35.00" vector-effect="non-scaling-stroke"/>
		<path stroke="#FCBE4C" d="M 85.00 115.00 L 85.00 115.00 C 85.00 115.00 86.35 112.08 88.00 108.50 C 89.65 104.92 92.35 99.97 94.00 97.50 C 95.65 95.03 99.70 90.08 103.00 86.50 C 106.30 82.92 111.92 77.97 115.50 75.50 C 119.08 73.03 124.70 69.65 128.00 68.00 C 131.30 66.35 136.93 64.10 140.50 63.00 C 144.07 61.90 147.45 61.00 148.00 61.00 C 148.57 61.00 148.36 62.50 147.50 64.50 C 146.68 66.42 145.32 69.12 143.00 73.00" vector-effect="non-scaling-stroke"/>
		<path stroke="#FEB61B" d="M 143.00 73.00 L 143.00 73.00 C 143.00 73.00 142.32 75.03 141.50 77.50 C 140.68 79.97 137.97 84.47 135.50 87.50 C 133.03 90.53 127.62 96.83 123.50 101.50 C 119.38 106.17 112.17 114.05 107.50 119.00 C 102.83 123.95 95.40 130.93 91.00 134.50 C 86.60 138.07 82.55 141.45 82.00 142.00 C 81.33 142.67 83.33 144.50 88.00 147.50 C 91.85 149.97 95.22 152.22 95.50 152.50 C 95.78 152.78 94.65 154.35 93.00 156.00 C 91.35 157.65 88.88 160.80 87.50 163.00 C 86.12 165.20 83.88 170.38 80.00 182.00 L 79.00 174.50 C 78.45 170.38 78.00 161.60 78.00 155.00 C 78.00 148.40 78.67 139.18 79.50 134.50 C 80.33 129.82 81.90 123.53 85.00 115.00" vector-effect="non-scaling-stroke"/>
		<path stroke="#FEB61B" d="M 85.00 115.00 L 85.00 115.00 C 85.00 115.00 85.90 114.55 87.00 114.00 C 88.10 113.45 90.80 110.75 93.00 108.00 C 95.20 105.25 99.92 100.08 103.50 96.50 C 107.08 92.92 114.05 87.30 119.00 84.00 C 124.33 80.44 131.06 76.98 143.00 73.00" vector-effect="non-scaling-stroke"/>
		<path stroke="#FDBD4B" d="M 233.00 134.00 C 233.00 126.22 233.20 125.14 234.50 126.00 C 235.32 126.55 237.12 130.82 238.50 135.50 C 240.53 142.40 240.91 145.41 240.50 151.50 C 240.17 156.50 239.17 160.83 237.50 164.50 C 236.12 167.53 234.10 171.12 233.00 172.50 C 231.90 173.88 230.78 174.78 230.50 174.50 C 230.22 174.22 230.00 171.75 230.00 169.00 C 230.00 166.25 229.10 161.07 228.00 157.50 C 226.90 153.93 225.10 148.75 224.00 146.00 C 222.90 143.25 222.22 141.00 222.50 141.00 C 222.78 141.00 224.80 142.35 227.00 144.00 C 229.20 145.65 231.22 147.00 231.50 147.00 C 231.78 147.00 232.22 146.10 232.50 145.00 C 232.78 143.90 233.00 138.95 233.00 134.00" vector-effect="non-scaling-stroke"/>
		<path stroke="#FEFEFE" d="M 208.00 233.00 L 208.00 233.00 C 208.00 233.00 208.00 233.22 208.00 233.50 C 208.00 233.78 208.22 234.22 209.00 235.00" vector-effect="non-scaling-stroke"/>
		<path stroke="#FEFEFE" d="M 209.00 235.00 L 209.00 235.00 C 209.00 235.00 204.95 237.03 200.00 239.50 C 195.05 241.97 187.62 245.12 183.50 246.50 C 179.38 247.88 172.62 249.68 168.50 250.50 C 164.38 251.32 156.28 252.00 150.50 252.00 C 143.33 252.00 137.46 251.37 132.00 250.00 C 127.60 248.90 120.62 246.43 116.50 244.50 C 111.78 242.30 106.59 238.78 102.50 235.00 C 97.30 230.20 95.20 227.30 92.00 220.50 C 89.80 215.82 87.33 209.30 86.50 206.00 C 85.67 202.70 85.00 195.95 85.00 191.00 C 85.00 185.89 85.65 179.84 86.50 177.00 C 87.33 174.25 88.90 170.20 92.00 164.00" vector-effect="non-scaling-stroke"/>
		<path stroke="#FEFEFE" d="M 179.00 154.00 L 179.00 154.00 C 179.00 154.00 179.68 153.32 180.50 152.50 C 181.32 151.68 182.90 151.22 186.00 152.00" vector-effect="non-scaling-stroke"/>
		<path stroke="#101820" d="M 186.00 151.00 L 186.00 151.00 C 186.00 151.00 186.90 151.00 188.00 151.00 C 189.10 151.00 192.70 152.35 196.00 154.00 C 199.30 155.65 204.03 158.80 206.50 161.00 C 209.63 163.79 211.61 166.67 213.00 170.50 C 214.10 173.53 215.00 178.47 215.00 181.50 C 215.00 184.53 215.45 187.00 216.00 187.00 C 216.55 187.00 219.47 184.75 222.50 182.00 C 225.53 179.25 228.22 177.45 228.50 178.00 C 228.78 178.55 227.20 184.40 225.00 191.00 C 222.80 197.60 220.78 203.68 220.50 204.50 C 220.15 205.54 221.70 205.07 225.50 203.00 C 228.53 201.35 231.22 200.22 231.50 200.50 C 231.78 200.78 230.43 204.38 228.50 208.50 C 226.57 212.62 223.65 218.03 222.00 220.50 C 220.35 222.97 218.10 225.45 217.00 226.00 C 215.90 226.55 213.43 228.35 208.00 233.00" vector-effect="non-scaling-stroke"/>
		<path stroke="#101820" d="M 208.00 233.00 L 208.00 233.00 C 208.00 233.00 210.03 230.75 212.50 228.00 C 214.97 225.25 218.35 220.30 220.00 217.00 C 221.65 213.70 222.78 211.00 222.50 211.00 C 222.22 211.00 219.53 212.12 216.50 213.50 C 213.47 214.88 210.78 215.78 210.50 215.50 C 210.22 215.22 211.57 210.72 213.50 205.50 C 215.43 200.28 216.78 195.78 216.50 195.50 C 216.22 195.22 214.20 196.12 212.00 197.50 C 209.80 198.88 207.78 199.78 207.50 199.50 C 207.22 199.22 207.68 195.85 208.50 192.00 C 209.35 188.03 209.78 182.62 209.50 179.50 C 209.22 176.47 208.10 171.97 207.00 169.50 C 205.90 167.03 202.97 163.20 200.50 161.00 C 198.03 158.80 193.75 155.88 186.00 152.00" vector-effect="non-scaling-stroke"/>
		<path stroke="#101820" d="M 186.00 152.00 L 186.00 152.00 C 186.00 152.00 186.00 151.78 186.00 151.00" vector-effect="non-scaling-stroke"/>
		<path stroke="#E8E9EA" d="M 179.00 154.00 L 179.00 154.00 C 179.00 154.00 176.53 156.47 173.50 159.50 C 170.07 162.93 165.55 166.13 161.50 168.00 C 157.93 169.65 153.20 171.45 151.00 172.00 C 148.80 172.55 142.28 173.68 126.00 176.00" vector-effect="non-scaling-stroke"/>
		<path stroke="#E8E9EA" d="M 109.00 173.00 L 109.00 173.00 C 109.00 173.00 106.75 172.10 104.00 171.00 C 101.25 169.90 97.65 167.65 96.00 166.00 C 94.35 164.35 92.78 163.22 92.00 164.00" vector-effect="non-scaling-stroke"/>
		<path stroke="#E8E9EA" d="M 92.00 164.00 L 92.00 164.00 C 92.00 164.00 93.35 161.75 95.00 159.00 C 97.00 155.67 98.50 154.17 99.50 154.50 C 100.33 154.78 105.50 156.57 111.00 158.50 C 116.50 160.43 124.60 162.45 129.00 163.00 C 133.40 163.55 140.82 163.78 145.50 163.50 C 150.18 163.22 157.15 162.10 161.00 161.00 C 164.85 159.90 170.47 157.88 179.00 154.00" vector-effect="non-scaling-stroke"/>
		<path stroke="#101820" d="M 126.00 176.00 L 126.00 176.00 C 126.00 176.00 126.90 176.68 128.00 177.50 C 129.10 178.32 131.12 181.25 132.50 184.00 C 133.88 186.75 135.00 190.12 135.00 191.50 C 135.00 193.69 134.57 193.38 131.50 189.00 C 129.57 186.25 126.20 182.43 124.00 180.50 C 121.80 178.57 117.53 176.10 109.00 173.00" vector-effect="non-scaling-stroke"/>
		<path stroke="#101820" d="M 109.00 173.00 L 109.00 173.00 C 109.00 173.00 108.55 172.78 108.00 172.50 C 107.45 172.22 107.00 171.55 107.00 171.00 C 107.00 170.40 109.00 170.20 112.00 170.50 C 114.75 170.78 119.03 172.12 126.00 176.00" vector-effect="non-scaling-stroke"/>
		<path stroke="#111921" d="M 164.00 172.50 C 168.27 170.37 169.95 170.07 182.00 171.00 L 175.50 173.00 C 171.93 174.10 166.75 176.35 164.00 178.00 C 161.25 179.65 157.88 182.35 156.50 184.00 C 155.12 185.65 152.88 188.57 151.50 190.50 C 149.10 193.86 149.00 193.90 149.00 191.50 C 149.00 190.12 149.90 187.20 151.00 185.00 C 152.10 182.80 154.35 179.65 156.00 178.00 C 157.65 176.35 161.25 173.88 164.00 172.50" vector-effect="non-scaling-stroke"/>
		<path stroke="#121921" d="M 110.00 181.50 C 111.10 181.22 113.58 181.22 115.50 181.50 C 117.42 181.78 120.35 182.68 122.00 183.50 C 123.65 184.32 126.12 186.35 127.50 188.00 C 128.88 189.65 130.68 192.57 133.00 198.00 L 127.00 193.00 L 127.00 196.00 C 127.00 198.00 126.00 200.00 124.00 202.00 C 122.35 203.65 121.22 205.45 121.50 206.00 C 121.80 206.59 120.98 206.80 119.50 206.50 C 118.12 206.22 114.53 205.55 111.50 205.00 C 106.94 204.17 106.17 203.74 107.00 202.50 C 107.71 201.43 107.57 200.57 106.50 199.50 C 105.67 198.68 105.00 196.65 105.00 195.00 C 105.00 193.35 105.67 190.65 106.50 189.00 C 107.98 186.04 107.97 186.01 105.50 186.50 C 104.12 186.78 102.33 187.22 101.50 187.50 C 100.36 187.88 100.24 187.64 101.00 186.50 C 101.55 185.68 103.35 184.32 105.00 183.50 C 106.65 182.68 108.90 181.78 110.00 181.50" vector-effect="non-scaling-stroke"/>
		<path stroke="#111921" d="M 164.50 183.50 C 165.98 182.61 169.44 182.00 173.00 182.00 C 176.30 182.00 180.57 182.68 182.50 183.50 C 184.43 184.32 186.45 185.68 187.00 186.50 C 187.76 187.64 187.64 187.88 186.50 187.50 C 185.68 187.22 183.65 186.78 182.00 186.50 C 180.35 186.22 179.00 186.22 179.00 186.50 C 179.00 186.78 179.68 188.12 180.50 189.50 C 181.32 190.88 182.00 193.12 182.00 194.50 C 182.00 195.88 181.32 198.12 180.50 199.50 C 179.68 200.88 179.00 202.22 179.00 202.50 C 179.00 202.78 179.90 203.00 181.00 203.00 C 182.10 203.00 182.78 203.45 182.50 204.00 C 182.22 204.55 178.85 205.45 168.00 207.00 L 164.00 203.00 C 160.67 199.67 160.00 198.33 160.00 191.00 L 152.00 197.00 L 153.50 194.00 C 154.32 192.35 156.57 189.65 158.50 188.00 C 160.43 186.35 163.12 184.32 164.50 183.50" vector-effect="non-scaling-stroke"/>
		<path stroke="#FFFFFF" d="M 108.50 196.50 C 108.91 194.45 109.45 194.09 111.50 194.50 C 113.17 194.83 114.00 195.67 114.00 197.00 C 114.00 198.10 113.33 199.22 112.50 199.50 C 111.67 199.78 110.33 199.78 109.50 199.50 C 108.50 199.17 108.17 198.17 108.50 196.50" vector-effect="non-scaling-stroke"/>
		<path stroke="#FFFFFF" d="M 163.50 196.00 C 163.78 195.45 164.90 195.22 166.00 195.50 C 167.17 195.79 168.00 196.83 168.00 198.00 C 168.00 199.17 167.17 200.21 166.00 200.50 C 164.59 200.85 163.85 200.41 163.50 199.00 C 163.22 197.90 163.22 196.55 163.50 196.00" vector-effect="non-scaling-stroke"/>
		<path stroke="#171E26" d="M 180.50 218.50 C 181.32 218.22 183.35 218.00 185.00 218.00 C 186.65 218.00 188.68 218.68 189.50 219.50 C 190.32 220.32 191.00 222.57 191.00 224.50 C 191.00 226.43 190.78 228.00 190.50 228.00 C 190.22 228.00 189.32 227.32 188.50 226.50 C 187.17 225.17 186.28 225.50 180.50 229.50 C 176.93 231.97 170.85 235.12 167.00 236.50 C 161.40 238.50 158.10 239.00 150.50 239.00 C 144.72 239.00 139.24 238.41 132.00 236.00 L 139.00 236.50 C 142.85 236.78 149.15 236.55 153.00 236.00 C 156.85 235.45 162.25 234.32 165.00 233.50 C 167.75 232.68 172.70 229.97 176.00 227.50 C 179.30 225.03 182.22 222.55 182.50 222.00 C 182.78 221.45 182.10 220.55 181.00 220.00 C 179.40 219.20 179.30 218.90 180.50 218.50" vector-effect="non-scaling-stroke"/>
	</g>
	<path fill="#101820F9" d="M 196.00 19.00 C 204.53 24.43 210.60 29.82 215.00 34.50 C 221.12 41.00 223.94 45.00 227.00 51.50 C 229.20 56.17 231.68 62.70 232.50 66.00 C 233.42 69.67 234.00 76.67 234.00 84.00 C 234.00 90.60 234.22 96.22 234.50 96.50 C 234.78 96.78 237.47 94.75 240.50 92.00 C 244.17 88.67 246.33 87.33 247.00 88.00 C 247.55 88.55 249.57 92.83 251.50 97.50 C 253.43 102.17 255.90 109.15 257.00 113.00 C 258.10 116.85 259.68 123.38 260.50 127.50 C 261.32 131.62 262.00 139.72 262.00 145.50 C 262.00 151.28 261.32 159.82 260.50 164.50 C 259.68 169.18 257.88 176.15 256.50 180.00 C 255.12 183.85 252.65 189.70 251.00 193.00 C 249.35 196.30 245.75 202.38 243.00 206.50 C 240.25 210.62 232.38 219.62 225.50 226.50 C 218.62 233.38 210.30 240.80 207.00 243.00 C 203.70 245.20 197.40 248.35 193.00 250.00 C 188.60 251.65 181.62 253.90 177.50 255.00 C 173.38 256.10 165.28 257.45 159.50 258.00 C 152.50 258.67 146.00 258.67 140.00 258.00 C 135.05 257.45 127.85 256.10 124.00 255.00 C 120.15 253.90 115.20 252.10 113.00 251.00 C 110.80 249.90 106.53 247.20 103.50 245.00 C 100.47 242.80 95.97 238.30 93.50 235.00 C 91.03 231.70 87.20 225.18 85.00 220.50 C 82.71 215.64 80.14 207.93 79.00 202.50 C 77.90 197.28 76.10 187.60 75.00 181.00 C 73.52 172.11 73.00 164.33 73.00 151.00 C 73.00 138.56 73.46 130.99 74.50 126.50 C 75.33 122.92 76.90 117.53 78.00 114.50 C 79.10 111.47 81.58 106.08 83.50 102.50 C 85.42 98.92 89.03 93.30 91.50 90.00 C 93.97 86.70 98.47 81.75 101.50 79.00 C 104.53 76.25 109.70 72.20 113.00 70.00 C 116.30 67.80 122.15 64.42 126.00 62.50 C 129.85 60.58 137.95 57.65 144.00 56.00 C 150.05 54.35 155.45 53.00 156.00 53.00 C 156.59 53.00 156.39 54.83 155.50 57.50 C 154.68 59.98 154.00 62.45 154.00 63.00 C 154.00 63.55 154.45 64.00 155.00 64.00 C 155.55 64.00 160.95 60.85 167.00 57.00 C 175.00 51.91 179.50 48.23 183.50 43.50 C 187.48 38.80 189.97 34.50 192.50 28.00 L 196.00 19.00 Z M 98.00 137.00 C 93.35 140.10 92.22 141.45 92.50 142.00 C 92.78 142.55 96.83 145.03 101.50 147.50 C 106.17 149.97 113.83 153.12 118.50 154.50 C 125.72 156.62 129.03 157.00 140.50 157.00 C 150.83 157.00 155.76 156.53 161.50 155.00 C 165.62 153.90 172.15 151.43 176.00 149.50 C 180.82 147.09 184.71 144.13 188.50 140.00 C 191.53 136.70 195.80 131.30 198.00 128.00 C 200.20 124.70 202.68 119.53 203.50 116.50 C 204.32 113.47 205.22 111.22 205.50 111.50 C 205.78 111.78 204.88 115.83 203.50 120.50 C 202.12 125.17 199.43 131.47 197.50 134.50 C 195.57 137.53 191.97 142.25 189.50 145.00 C 187.03 147.75 185.22 150.22 185.50 150.50 C 185.78 150.78 186.00 151.00 186.00 151.00 L 186.00 151.00 C 186.00 151.78 186.00 152.00 186.00 152.00 L 186.00 152.00 C 182.90 151.22 181.32 151.68 180.50 152.50 C 179.68 153.32 179.00 154.00 179.00 154.00 L 179.00 154.00 C 170.47 157.88 164.85 159.90 161.00 161.00 C 157.15 162.10 150.18 163.22 145.50 163.50 C 140.82 163.78 133.40 163.55 129.00 163.00 C 124.60 162.45 116.50 160.43 111.00 158.50 C 105.50 156.57 100.33 154.78 99.50 154.50 C 98.50 154.17 97.00 155.67 95.00 159.00 C 93.35 161.75 92.00 164.00 92.00 164.00 L 92.00 164.00 C 88.90 170.20 87.33 174.25 86.50 177.00 C 85.65 179.84 85.00 185.89 85.00 191.00 C 85.00 195.95 85.67 202.70 86.50 206.00 C 87.33 209.30 89.80 215.82 92.00 220.50 C 95.20 227.30 97.30 230.20 102.50 235.00 C 106.59 238.78 111.78 242.30 116.50 244.50 C 120.62 246.43 127.60 248.90 132.00 250.00 C 137.46 251.37 143.33 252.00 150.50 252.00 C 156.28 252.00 164.38 251.32 168.50 250.50 C 172.62 249.68 179.38 247.88 183.50 246.50 C 187.62 245.12 195.05 241.97 200.00 239.50 C 204.95 237.03 209.00 235.00 209.00 235.00 L 209.00 235.00 C 212.88 232.68 216.47 229.75 219.50 227.00 C 222.53 224.25 227.70 218.40 231.00 214.00 C 234.30 209.60 239.03 201.72 241.50 196.50 C 243.97 191.28 247.12 183.62 248.50 179.50 C 249.88 175.38 251.90 167.72 253.00 162.50 C 254.39 155.91 255.00 149.17 255.00 140.50 C 255.00 133.39 254.35 124.77 253.50 120.50 C 252.68 116.38 250.43 109.62 248.50 105.50 L 245.00 98.00 C 237.25 104.97 232.07 108.58 228.50 110.50 C 224.93 112.42 221.78 113.78 221.50 113.50 C 221.22 113.22 222.12 110.30 223.50 107.00 C 224.88 103.70 226.45 98.30 227.00 95.00 C 227.55 91.70 227.78 84.05 227.50 78.00 C 227.12 69.53 226.42 65.50 224.50 60.50 C 223.12 56.92 219.97 50.85 217.50 47.00 C 215.03 43.15 211.65 38.88 210.00 37.50 C 208.35 36.12 207.00 35.00 207.00 35.00 L 207.00 35.00 C 201.57 28.80 199.55 27.23 199.00 27.50 C 198.45 27.77 198.00 29.12 198.00 30.50 C 198.00 31.88 197.10 35.48 196.00 38.50 C 194.87 41.61 192.04 46.18 189.50 49.00 C 187.03 51.75 182.97 55.35 180.50 57.00 C 178.03 58.65 171.50 62.48 166.00 65.50 C 160.50 68.53 152.62 73.47 148.50 76.50 C 142.95 80.57 139.57 84.08 135.50 90.00 C 132.47 94.40 125.95 103.40 121.00 110.00 C 116.05 116.60 108.85 125.38 105.00 129.50 C 101.15 133.62 98.00 137.00 98.00 137.00 L 98.00 137.00 Z M 85.00 115.00 C 81.90 123.53 80.33 129.82 79.50 134.50 C 78.67 139.18 78.00 148.40 78.00 155.00 C 78.00 161.60 78.45 170.38 79.00 174.50 L 80.00 182.00 C 83.88 170.38 86.12 165.20 87.50 163.00 C 88.88 160.80 91.35 157.65 93.00 156.00 C 94.65 154.35 95.78 152.78 95.50 152.50 C 95.22 152.22 91.85 149.97 88.00 147.50 C 83.33 144.50 81.33 142.67 82.00 142.00 C 82.55 141.45 86.60 138.07 91.00 134.50 C 95.40 130.93 102.83 123.95 107.50 119.00 C 112.17 114.05 119.38 106.17 123.50 101.50 C 127.62 96.83 133.03 90.53 135.50 87.50 C 137.97 84.47 140.68 79.97 141.50 77.50 C 142.32 75.03 143.00 73.00 143.00 73.00 L 143.00 73.00 C 145.32 69.12 146.68 66.42 147.50 64.50 C 148.36 62.50 148.57 61.00 148.00 61.00 C 147.45 61.00 144.07 61.90 140.50 63.00 C 136.93 64.10 131.30 66.35 128.00 68.00 C 124.70 69.65 119.08 73.03 115.50 75.50 C 111.92 77.97 106.30 82.92 103.00 86.50 C 99.70 90.08 95.65 95.03 94.00 97.50 C 92.35 99.97 89.65 104.92 88.00 108.50 C 86.35 112.08 85.00 115.00 85.00 115.00 L 85.00 115.00 Z" fill-rule="evenodd"/>
	<path fill="#FCBE4B" d="M 207.00 35.00 C 209.32 41.98 210.45 48.27 211.00 53.50 C 211.67 59.83 211.67 65.67 211.00 71.00 C 210.32 76.46 208.89 81.38 206.50 86.50 C 204.03 91.79 201.52 95.33 198.00 98.50 C 195.25 100.97 190.30 104.12 187.00 105.50 C 181.05 107.98 180.97 108.07 177.00 116.50 C 174.09 122.69 171.37 126.63 167.00 131.00 C 163.70 134.30 158.75 138.12 156.00 139.50 C 153.25 140.88 148.75 142.68 146.00 143.50 C 143.08 144.38 137.06 145.00 131.50 145.00 C 124.57 145.00 119.43 144.32 112.50 142.50 C 107.28 141.12 101.88 139.32 100.50 138.50 C 99.12 137.68 98.00 137.00 98.00 137.00 L 98.00 137.00 L 98.00 137.00 C 98.00 137.00 101.15 133.62 105.00 129.50 C 108.85 125.38 116.05 116.60 121.00 110.00 C 125.95 103.40 132.47 94.40 135.50 90.00 C 139.57 84.08 142.95 80.57 148.50 76.50 C 152.62 73.47 160.50 68.53 166.00 65.50 C 171.50 62.48 178.03 58.65 180.50 57.00 C 182.97 55.35 187.03 51.75 189.50 49.00 C 192.04 46.18 194.87 41.61 196.00 38.50 C 197.10 35.48 198.00 31.88 198.00 30.50 C 198.00 29.12 198.45 27.77 199.00 27.50 C 199.55 27.23 201.57 28.80 207.00 35.00 Z" fill-rule="evenodd"/>
	<path fill="#FEB61B" d="M 207.00 35.00 L 207.00 35.00 C 207.00 35.00 208.35 36.12 210.00 37.50 C 211.65 38.88 215.03 43.15 217.50 47.00 C 219.97 50.85 223.12 56.92 224.50 60.50 C 226.42 65.50 227.12 69.53 227.50 78.00 C 227.78 84.05 227.55 91.70 227.00 95.00 C 226.45 98.30 224.88 103.70 223.50 107.00 C 222.12 110.30 221.22 113.22 221.50 113.50 C 221.78 113.78 224.93 112.42 228.50 110.50 C 232.07 108.58 237.25 104.97 245.00 98.00 L 248.50 105.50 C 250.43 109.62 252.68 116.38 253.50 120.50 C 254.35 124.77 255.00 133.39 255.00 140.50 C 255.00 149.17 254.39 155.91 253.00 162.50 C 251.90 167.72 249.88 175.38 248.50 179.50 C 247.12 183.62 243.97 191.28 241.50 196.50 C 239.03 201.72 234.30 209.60 231.00 214.00 C 227.70 218.40 222.53 224.25 219.50 227.00 C 216.47 229.75 212.88 232.68 209.00 235.00 C 208.22 234.22 208.00 233.78 208.00 233.50 C 208.00 233.22 208.00 233.00 208.00 233.00 L 208.00 233.00 C 213.43 228.35 215.90 226.55 217.00 226.00 C 218.10 225.45 220.35 222.97 222.00 220.50 C 223.65 218.03 226.57 212.62 228.50 208.50 C 230.43 204.38 231.78 200.78 231.50 200.50 C 231.22 200.22 228.53 201.35 225.50 203.00 C 221.70 205.07 220.15 205.54 220.50 204.50 C 220.78 203.68 222.80 197.60 225.00 191.00 C 227.20 184.40 228.78 178.55 228.50 178.00 C 228.22 177.45 225.53 179.25 222.50 182.00 C 219.47 184.75 216.55 187.00 216.00 187.00 C 215.45 187.00 215.00 184.53 215.00 181.50 C 215.00 178.47 214.10 173.53 213.00 170.50 C 211.61 166.67 209.63 163.79 206.50 161.00 C 204.03 158.80 199.30 155.65 196.00 154.00 C 192.70 152.35 189.10 151.00 188.00 151.00 C 186.90 151.00 186.00 151.00 186.00 151.00 L 186.00 151.00 L 186.00 151.00 C 186.00 151.00 185.78 150.78 185.50 150.50 C 185.22 150.22 187.03 147.75 189.50 145.00 C 191.97 142.25 195.57 137.53 197.50 134.50 C 199.43 131.47 202.12 125.17 203.50 120.50 C 204.88 115.83 205.78 111.78 205.50 111.50 C 205.22 111.22 204.32 113.47 203.50 116.50 C 202.68 119.53 200.20 124.70 198.00 128.00 C 195.80 131.30 191.53 136.70 188.50 140.00 C 184.71 144.13 180.82 147.09 176.00 149.50 C 172.15 151.43 165.62 153.90 161.50 155.00 C 155.76 156.53 150.83 157.00 140.50 157.00 C 129.03 157.00 125.72 156.62 118.50 154.50 C 113.83 153.12 106.17 149.97 101.50 147.50 C 96.83 145.03 92.78 142.55 92.50 142.00 C 92.22 141.45 93.35 140.10 98.00 137.00 L 98.00 137.00 C 98.00 137.00 99.12 137.68 100.50 138.50 C 101.88 139.32 107.28 141.12 112.50 142.50 C 119.43 144.32 124.57 145.00 131.50 145.00 C 137.06 145.00 143.08 144.38 146.00 143.50 C 148.75 142.68 153.25 140.88 156.00 139.50 C 158.75 138.12 163.70 134.30 167.00 131.00 C 171.37 126.63 174.09 122.69 177.00 116.50 C 180.97 108.07 181.05 107.98 187.00 105.50 C 190.30 104.12 195.25 100.97 198.00 98.50 C 201.52 95.33 204.03 91.79 206.50 86.50 C 208.89 81.38 210.32 76.46 211.00 71.00 C 211.67 65.67 211.67 59.83 211.00 53.50 C 210.45 48.27 209.32 41.98 207.00 35.00 Z M 233.00 134.00 C 233.00 138.95 232.78 143.90 232.50 145.00 C 232.22 146.10 231.78 147.00 231.50 147.00 C 231.22 147.00 229.20 145.65 227.00 144.00 C 224.80 142.35 222.78 141.00 222.50 141.00 C 222.22 141.00 222.90 143.25 224.00 146.00 C 225.10 148.75 226.90 153.93 228.00 157.50 C 229.10 161.07 230.00 166.25 230.00 169.00 C 230.00 171.75 230.22 174.22 230.50 174.50 C 230.78 174.78 231.90 173.88 233.00 172.50 C 234.10 171.12 236.12 167.53 237.50 164.50 C 239.17 160.83 240.17 156.50 240.50 151.50 C 240.91 145.41 240.53 142.40 238.50 135.50 C 237.12 130.82 235.32 126.55 234.50 126.00 C 233.20 125.14 233.00 126.22 233.00 134.00 Z" fill-rule="evenodd"/>
	<path fill="#FCBE4C" d="M 143.00 73.00 C 131.06 76.98 124.33 80.44 119.00 84.00 C 114.05 87.30 107.08 92.92 103.50 96.50 C 99.92 100.08 95.20 105.25 93.00 108.00 C 90.80 110.75 88.10 113.45 87.00 114.00 C 85.90 114.55 85.00 115.00 85.00 115.00 L 85.00 115.00 L 85.00 115.00 C 85.00 115.00 86.35 112.08 88.00 108.50 C 89.65 104.92 92.35 99.97 94.00 97.50 C 95.65 95.03 99.70 90.08 103.00 86.50 C 106.30 82.92 111.92 77.97 115.50 75.50 C 119.08 73.03 124.70 69.65 128.00 68.00 C 131.30 66.35 136.93 64.10 140.50 63.00 C 144.07 61.90 147.45 61.00 148.00 61.00 C 148.57 61.00 148.36 62.50 147.50 64.50 C 146.68 66.42 145.32 69.12 143.00 73.00 Z" fill-rule="evenodd"/>
	<path fill="#FEB61B" d="M 143.00 73.00 L 143.00 73.00 C 143.00 73.00 142.32 75.03 141.50 77.50 C 140.68 79.97 137.97 84.47 135.50 87.50 C 133.03 90.53 127.62 96.83 123.50 101.50 C 119.38 106.17 112.17 114.05 107.50 119.00 C 102.83 123.95 95.40 130.93 91.00 134.50 C 86.60 138.07 82.55 141.45 82.00 142.00 C 81.33 142.67 83.33 144.50 88.00 147.50 C 91.85 149.97 95.22 152.22 95.50 152.50 C 95.78 152.78 94.65 154.35 93.00 156.00 C 91.35 157.65 88.88 160.80 87.50 163.00 C 86.12 165.20 83.88 170.38 80.00 182.00 L 79.00 174.50 C 78.45 170.38 78.00 161.60 78.00 155.00 C 78.00 148.40 78.67 139.18 79.50 134.50 C 80.33 129.82 81.90 123.53 85.00 115.00 L 85.00 115.00 C 85.00 115.00 85.90 114.55 87.00 114.00 C 88.10 113.45 90.80 110.75 93.00 108.00 C 95.20 105.25 99.92 100.08 103.50 96.50 C 107.08 92.92 114.05 87.30 119.00 84.00 C 124.33 80.44 131.06 76.98 143.00 73.00 Z" fill-rule="evenodd"/>
	<path fill="#FDBD4B" d="M 233.00 134.00 C 233.00 126.22 233.20 125.14 234.50 126.00 C 235.32 126.55 237.12 130.82 238.50 135.50 C 240.53 142.40 240.91 145.41 240.50 151.50 C 240.17 156.50 239.17 160.83 237.50 164.50 C 236.12 167.53 234.10 171.12 233.00 172.50 C 231.90 173.88 230.78 174.78 230.50 174.50 C 230.22 174.22 230.00 171.75 230.00 169.00 C 230.00 166.25 229.10 161.07 228.00 157.50 C 226.90 153.93 225.10 148.75 224.00 146.00 C 222.90 143.25 222.22 141.00 222.50 141.00 C 222.78 141.00 224.80 142.35 227.00 144.00 C 229.20 145.65 231.22 147.00 231.50 147.00 C 231.78 147.00 232.22 146.10 232.50 145.00 C 232.78 143.90 233.00 138.95 233.00 134.00 Z" fill-rule="evenodd"/>
	<path fill="#FEFEFE" d="M 186.00 152.00 C 193.75 155.88 198.03 158.80 200.50 161.00 C 202.97 163.20 205.90 167.03 207.00 169.50 C 208.10 171.97 209.22 176.47 209.50 179.50 C 209.78 182.62 209.35 188.03 208.50 192.00 C 207.68 195.85 207.22 199.22 207.50 199.50 C 207.78 199.78 209.80 198.88 212.00 197.50 C 214.20 196.12 216.22 195.22 216.50 195.50 C 216.78 195.78 215.43 200.28 213.50 205.50 C 211.57 210.72 210.22 215.22 210.50 215.50 C 210.78 215.78 213.47 214.88 216.50 213.50 C 219.53 212.12 222.22 211.00 222.50 211.00 C 222.78 211.00 221.65 213.70 220.00 217.00 C 218.35 220.30 214.97 225.25 212.50 228.00 C 210.03 230.75 208.00 233.00 208.00 233.00 L 208.00 233.00 L 208.00 233.00 C 208.00 233.00 208.00 233.22 208.00 233.50 C 208.00 233.78 208.22 234.22 209.00 235.00 L 209.00 235.00 C 209.00 235.00 204.95 237.03 200.00 239.50 C 195.05 241.97 187.62 245.12 183.50 246.50 C 179.38 247.88 172.62 249.68 168.50 250.50 C 164.38 251.32 156.28 252.00 150.50 252.00 C 143.33 252.00 137.46 251.37 132.00 250.00 C 127.60 248.90 120.62 246.43 116.50 244.50 C 111.78 242.30 106.59 238.78 102.50 235.00 C 97.30 230.20 95.20 227.30 92.00 220.50 C 89.80 215.82 87.33 209.30 86.50 206.00 C 85.67 202.70 85.00 195.95 85.00 191.00 C 85.00 185.89 85.65 179.84 86.50 177.00 C 87.33 174.25 88.90 170.20 92.00 164.00 C 92.78 163.22 94.35 164.35 96.00 166.00 C 97.65 167.65 101.25 169.90 104.00 171.00 C 106.75 172.10 109.00 173.00 109.00 173.00 L 109.00 173.00 C 117.53 176.10 121.80 178.57 124.00 180.50 C 126.20 182.43 129.57 186.25 131.50 189.00 C 134.57 193.38 135.00 193.69 135.00 191.50 C 135.00 190.12 133.88 186.75 132.50 184.00 C 131.12 181.25 129.10 178.32 128.00 177.50 C 126.90 176.68 126.00 176.00 126.00 176.00 L 126.00 176.00 C 142.28 173.68 148.80 172.55 151.00 172.00 C 153.20 171.45 157.93 169.65 161.50 168.00 C 165.55 166.13 170.07 162.93 173.50 159.50 C 176.53 156.47 179.00 154.00 179.00 154.00 L 179.00 154.00 L 179.00 154.00 C 179.00 154.00 179.68 153.32 180.50 152.50 C 181.32 151.68 182.90 151.22 186.00 152.00 Z M 164.00 172.50 C 161.25 173.88 157.65 176.35 156.00 178.00 C 154.35 179.65 152.10 182.80 151.00 185.00 C 149.90 187.20 149.00 190.12 149.00 191.50 C 149.00 193.90 149.10 193.86 151.50 190.50 C 152.88 188.57 155.12 185.65 156.50 184.00 C 157.88 182.35 161.25 179.65 164.00 178.00 C 166.75 176.35 171.93 174.10 175.50 173.00 L 182.00 171.00 C 169.95 170.07 168.27 170.37 164.00 172.50 Z M 110.00 181.50 C 108.90 181.78 106.65 182.68 105.00 183.50 C 103.35 184.32 101.55 185.68 101.00 186.50 C 100.24 187.64 100.36 187.88 101.50 187.50 C 102.33 187.22 104.12 186.78 105.50 186.50 C 107.97 186.01 107.98 186.04 106.50 189.00 C 105.67 190.65 105.00 193.35 105.00 195.00 C 105.00 196.65 105.67 198.68 106.50 199.50 C 107.57 200.57 107.71 201.43 107.00 202.50 C 106.17 203.74 106.94 204.17 111.50 205.00 C 114.53 205.55 118.12 206.22 119.50 206.50 C 120.98 206.80 121.80 206.59 121.50 206.00 C 121.22 205.45 122.35 203.65 124.00 202.00 C 126.00 200.00 127.00 198.00 127.00 196.00 L 127.00 193.00 L 133.00 198.00 C 130.68 192.57 128.88 189.65 127.50 188.00 C 126.12 186.35 123.65 184.32 122.00 183.50 C 120.35 182.68 117.42 181.78 115.50 181.50 C 113.58 181.22 111.10 181.22 110.00 181.50 Z M 164.50 183.50 C 163.12 184.32 160.43 186.35 158.50 188.00 C 156.57 189.65 154.32 192.35 153.50 194.00 L 152.00 197.00 L 160.00 191.00 C 160.00 198.33 160.67 199.67 164.00 203.00 L 168.00 207.00 C 178.85 205.45 182.22 204.55 182.50 204.00 C 182.78 203.45 182.10 203.00 181.00 203.00 C 179.90 203.00 179.00 202.78 179.00 202.50 C 179.00 202.22 179.68 200.88 180.50 199.50 C 181.32 198.12 182.00 195.88 182.00 194.50 C 182.00 193.12 181.32 190.88 180.50 189.50 C 179.68 188.12 179.00 186.78 179.00 186.50 C 179.00 186.22 180.35 186.22 182.00 186.50 C 183.65 186.78 185.68 187.22 186.50 187.50 C 187.64 187.88 187.76 187.64 187.00 186.50 C 186.45 185.68 184.43 184.32 182.50 183.50 C 180.57 182.68 176.30 182.00 173.00 182.00 C 169.44 182.00 165.98 182.61 164.50 183.50 Z M 180.50 218.50 C 179.30 218.90 179.40 219.20 181.00 220.00 C 182.10 220.55 182.78 221.45 182.50 222.00 C 182.22 222.55 179.30 225.03 176.00 227.50 C 172.70 229.97 167.75 232.68 165.00 233.50 C 162.25 234.32 156.85 235.45 153.00 236.00 C 149.15 236.55 142.85 236.78 139.00 236.50 L 132.00 236.00 C 139.24 238.41 144.72 239.00 150.50 239.00 C 158.10 239.00 161.40 238.50 167.00 236.50 C 170.85 235.12 176.93 231.97 180.50 229.50 C 186.28 225.50 187.17 225.17 188.50 226.50 C 189.32 227.32 190.22 228.00 190.50 228.00 C 190.78 228.00 191.00 226.43 191.00 224.50 C 191.00 222.57 190.32 220.32 189.50 219.50 C 188.68 218.68 186.65 218.00 185.00 218.00 C 183.35 218.00 181.32 218.22 180.50 218.50 Z" fill-rule="evenodd"/>
	<path fill="#101820" d="M 186.00 151.00 L 186.00 151.00 C 186.00 151.00 186.90 151.00 188.00 151.00 C 189.10 151.00 192.70 152.35 196.00 154.00 C 199.30 155.65 204.03 158.80 206.50 161.00 C 209.63 163.79 211.61 166.67 213.00 170.50 C 214.10 173.53 215.00 178.47 215.00 181.50 C 215.00 184.53 215.45 187.00 216.00 187.00 C 216.55 187.00 219.47 184.75 222.50 182.00 C 225.53 179.25 228.22 177.45 228.50 178.00 C 228.78 178.55 227.20 184.40 225.00 191.00 C 222.80 197.60 220.78 203.68 220.50 204.50 C 220.15 205.54 221.70 205.07 225.50 203.00 C 228.53 201.35 231.22 200.22 231.50 200.50 C 231.78 200.78 230.43 204.38 228.50 208.50 C 226.57 212.62 223.65 218.03 222.00 220.50 C 220.35 222.97 218.10 225.45 217.00 226.00 C 215.90 226.55 213.43 228.35 208.00 233.00 L 208.00 233.00 C 208.00 233.00 210.03 230.75 212.50 228.00 C 214.97 225.25 218.35 220.30 220.00 217.00 C 221.65 213.70 222.78 211.00 222.50 211.00 C 222.22 211.00 219.53 212.12 216.50 213.50 C 213.47 214.88 210.78 215.78 210.50 215.50 C 210.22 215.22 211.57 210.72 213.50 205.50 C 215.43 200.28 216.78 195.78 216.50 195.50 C 216.22 195.22 214.20 196.12 212.00 197.50 C 209.80 198.88 207.78 199.78 207.50 199.50 C 207.22 199.22 207.68 195.85 208.50 192.00 C 209.35 188.03 209.78 182.62 209.50 179.50 C 209.22 176.47 208.10 171.97 207.00 169.50 C 205.90 167.03 202.97 163.20 200.50 161.00 C 198.03 158.80 193.75 155.88 186.00 152.00 L 186.00 152.00 C 186.00 152.00 186.00 151.78 186.00 151.00 Z" fill-rule="evenodd"/>
	<path fill="#E8E9EA" d="M 179.00 154.00 L 179.00 154.00 C 179.00 154.00 176.53 156.47 173.50 159.50 C 170.07 162.93 165.55 166.13 161.50 168.00 C 157.93 169.65 153.20 171.45 151.00 172.00 C 148.80 172.55 142.28 173.68 126.00 176.00 C 119.03 172.12 114.75 170.78 112.00 170.50 C 109.00 170.20 107.00 170.40 107.00 171.00 C 107.00 171.55 107.45 172.22 108.00 172.50 C 108.55 172.78 109.00 173.00 109.00 173.00 L 109.00 173.00 L 109.00 173.00 C 109.00 173.00 106.75 172.10 104.00 171.00 C 101.25 169.90 97.65 167.65 96.00 166.00 C 94.35 164.35 92.78 163.22 92.00 164.00 L 92.00 164.00 C 92.00 164.00 93.35 161.75 95.00 159.00 C 97.00 155.67 98.50 154.17 99.50 154.50 C 100.33 154.78 105.50 156.57 111.00 158.50 C 116.50 160.43 124.60 162.45 129.00 163.00 C 133.40 163.55 140.82 163.78 145.50 163.50 C 150.18 163.22 157.15 162.10 161.00 161.00 C 164.85 159.90 170.47 157.88 179.00 154.00 Z" fill-rule="evenodd"/>
	<path fill="#101820" d="M 126.00 176.00 L 126.00 176.00 C 126.00 176.00 126.90 176.68 128.00 177.50 C 129.10 178.32 131.12 181.25 132.50 184.00 C 133.88 186.75 135.00 190.12 135.00 191.50 C 135.00 193.69 134.57 193.38 131.50 189.00 C 129.57 186.25 126.20 182.43 124.00 180.50 C 121.80 178.57 117.53 176.10 109.00 173.00 L 109.00 173.00 C 109.00 173.00 108.55 172.78 108.00 172.50 C 107.45 172.22 107.00 171.55 107.00 171.00 C 107.00 170.40 109.00 170.20 112.00 170.50 C 114.75 170.78 119.03 172.12 126.00 176.00 Z" fill-rule="evenodd"/>
	<path fill="#111921" d="M 164.00 172.50 C 168.27 170.37 169.95 170.07 182.00 171.00 L 175.50 173.00 C 171.93 174.10 166.75 176.35 164.00 178.00 C 161.25 179.65 157.88 182.35 156.50 184.00 C 155.12 185.65 152.88 188.57 151.50 190.50 C 149.10 193.86 149.00 193.90 149.00 191.50 C 149.00 190.12 149.90 187.20 151.00 185.00 C 152.10 182.80 154.35 179.65 156.00 178.00 C 157.65 176.35 161.25 173.88 164.00 172.50 Z" fill-rule="evenodd"/>
	<path fill="#121921" d="M 110.00 181.50 C 111.10 181.22 113.58 181.22 115.50 181.50 C 117.42 181.78 120.35 182.68 122.00 183.50 C 123.65 184.32 126.12 186.35 127.50 188.00 C 128.88 189.65 130.68 192.57 133.00 198.00 L 127.00 193.00 L 127.00 196.00 C 127.00 198.00 126.00 200.00 124.00 202.00 C 122.35 203.65 121.22 205.45 121.50 206.00 C 121.80 206.59 120.98 206.80 119.50 206.50 C 118.12 206.22 114.53 205.55 111.50 205.00 C 106.94 204.17 106.17 203.74 107.00 202.50 C 107.71 201.43 107.57 200.57 106.50 199.50 C 105.67 198.68 105.00 196.65 105.00 195.00 C 105.00 193.35 105.67 190.65 106.50 189.00 C 107.98 186.04 107.97 186.01 105.50 186.50 C 104.12 186.78 102.33 187.22 101.50 187.50 C 100.36 187.88 100.24 187.64 101.00 186.50 C 101.55 185.68 103.35 184.32 105.00 183.50 C 106.65 182.68 108.90 181.78 110.00 181.50 Z M 108.50 196.50 C 108.17 198.17 108.50 199.17 109.50 199.50 C 110.33 199.78 111.67 199.78 112.50 199.50 C 113.33 199.22 114.00 198.10 114.00 197.00 C 114.00 195.67 113.17 194.83 111.50 194.50 C 109.45 194.09 108.91 194.45 108.50 196.50 Z" fill-rule="evenodd"/>
	<path fill="#111921" d="M 164.50 183.50 C 165.98 182.61 169.44 182.00 173.00 182.00 C 176.30 182.00 180.57 182.68 182.50 183.50 C 184.43 184.32 186.45 185.68 187.00 186.50 C 187.76 187.64 187.64 187.88 186.50 187.50 C 185.68 187.22 183.65 186.78 182.00 186.50 C 180.35 186.22 179.00 186.22 179.00 186.50 C 179.00 186.78 179.68 188.12 180.50 189.50 C 181.32 190.88 182.00 193.12 182.00 194.50 C 182.00 195.88 181.32 198.12 180.50 199.50 C 179.68 200.88 179.00 202.22 179.00 202.50 C 179.00 202.78 179.90 203.00 181.00 203.00 C 182.10 203.00 182.78 203.45 182.50 204.00 C 182.22 204.55 178.85 205.45 168.00 207.00 L 164.00 203.00 C 160.67 199.67 160.00 198.33 160.00 191.00 L 152.00 197.00 L 153.50 194.00 C 154.32 192.35 156.57 189.65 158.50 188.00 C 160.43 186.35 163.12 184.32 164.50 183.50 Z M 163.50 196.00 C 163.22 196.55 163.22 197.90 163.50 199.00 C 163.85 200.41 164.59 200.85 166.00 200.50 C 167.17 200.21 168.00 199.17 168.00 198.00 C 168.00 196.83 167.17 195.79 166.00 195.50 C 164.90 195.22 163.78 195.45 163.50 196.00 Z" fill-rule="evenodd"/>
	<path fill="#FFFFFF" d="M 108.50 196.50 C 108.91 194.45 109.45 194.09 111.50 194.50 C 113.17 194.83 114.00 195.67 114.00 197.00 C 114.00 198.10 113.33 199.22 112.50 199.50 C 111.67 199.78 110.33 199.78 109.50 199.50 C 108.50 199.17 108.17 198.17 108.50 196.50 Z" fill-rule="evenodd"/>
	<path fill="#FFFFFF" d="M 163.50 196.00 C 163.78 195.45 164.90 195.22 166.00 195.50 C 167.17 195.79 168.00 196.83 168.00 198.00 C 168.00 199.17 167.17 200.21 166.00 200.50 C 164.59 200.85 163.85 200.41 163.50 199.00 C 163.22 197.90 163.22 196.55 163.50 196.00 Z" fill-rule="evenodd"/>
	<path fill="#171E26" d="M 180.50 218.50 C 181.32 218.22 183.35 218.00 185.00 218.00 C 186.65 218.00 188.68 218.68 189.50 219.50 C 190.32 220.32 191.00 222.57 191.00 224.50 C 191.00 226.43 190.78 228.00 190.50 228.00 C 190.22 228.00 189.32 227.32 188.50 226.50 C 187.17 225.17 186.28 225.50 180.50 229.50 C 176.93 231.97 170.85 235.12 167.00 236.50 C 161.40 238.50 158.10 239.00 150.50 239.00 C 144.72 239.00 139.24 238.41 132.00 236.00 L 139.00 236.50 C 142.85 236.78 149.15 236.55 153.00 236.00 C 156.85 235.45 162.25 234.32 165.00 233.50 C 167.75 232.68 172.70 229.97 176.00 227.50 C 179.30 225.03 182.22 222.55 182.50 222.00 C 182.78 221.45 182.10 220.55 181.00 220.00 C 179.40 219.20 179.30 218.90 180.50 218.50 Z" fill-rule="evenodd"/>
</svg>
